%TF.GenerationSoftware,KiCad,Pcbnew,(6.0.6)*%
%TF.CreationDate,2022-07-10T00:11:49-04:00*%
%TF.ProjectId,CircuitPythonukiah,43697263-7569-4745-9079-74686f6e756b,rev?*%
%TF.SameCoordinates,Original*%
%TF.FileFunction,Legend,Top*%
%TF.FilePolarity,Positive*%
%FSLAX46Y46*%
G04 Gerber Fmt 4.6, Leading zero omitted, Abs format (unit mm)*
G04 Created by KiCad (PCBNEW (6.0.6)) date 2022-07-10 00:11:49*
%MOMM*%
%LPD*%
G01*
G04 APERTURE LIST*
%ADD10C,0.150000*%
%ADD11C,0.127000*%
%ADD12C,0.200000*%
%ADD13C,0.120000*%
G04 APERTURE END LIST*
D10*
%TO.C,SW1*%
X126936666Y-85494761D02*
X127079523Y-85542380D01*
X127317619Y-85542380D01*
X127412857Y-85494761D01*
X127460476Y-85447142D01*
X127508095Y-85351904D01*
X127508095Y-85256666D01*
X127460476Y-85161428D01*
X127412857Y-85113809D01*
X127317619Y-85066190D01*
X127127142Y-85018571D01*
X127031904Y-84970952D01*
X126984285Y-84923333D01*
X126936666Y-84828095D01*
X126936666Y-84732857D01*
X126984285Y-84637619D01*
X127031904Y-84590000D01*
X127127142Y-84542380D01*
X127365238Y-84542380D01*
X127508095Y-84590000D01*
X127841428Y-84542380D02*
X128079523Y-85542380D01*
X128270000Y-84828095D01*
X128460476Y-85542380D01*
X128698571Y-84542380D01*
X129603333Y-85542380D02*
X129031904Y-85542380D01*
X129317619Y-85542380D02*
X129317619Y-84542380D01*
X129222380Y-84685238D01*
X129127142Y-84780476D01*
X129031904Y-84828095D01*
%TO.C,D8*%
X220136162Y-44851638D02*
X220136162Y-43851638D01*
X220374258Y-43851638D01*
X220517115Y-43899258D01*
X220612353Y-43994496D01*
X220659972Y-44089734D01*
X220707591Y-44280210D01*
X220707591Y-44423067D01*
X220659972Y-44613543D01*
X220612353Y-44708781D01*
X220517115Y-44804019D01*
X220374258Y-44851638D01*
X220136162Y-44851638D01*
X221279019Y-44280210D02*
X221183781Y-44232591D01*
X221136162Y-44184972D01*
X221088543Y-44089734D01*
X221088543Y-44042115D01*
X221136162Y-43946877D01*
X221183781Y-43899258D01*
X221279019Y-43851638D01*
X221469496Y-43851638D01*
X221564734Y-43899258D01*
X221612353Y-43946877D01*
X221659972Y-44042115D01*
X221659972Y-44089734D01*
X221612353Y-44184972D01*
X221564734Y-44232591D01*
X221469496Y-44280210D01*
X221279019Y-44280210D01*
X221183781Y-44327829D01*
X221136162Y-44375448D01*
X221088543Y-44470686D01*
X221088543Y-44661162D01*
X221136162Y-44756400D01*
X221183781Y-44804019D01*
X221279019Y-44851638D01*
X221469496Y-44851638D01*
X221564734Y-44804019D01*
X221612353Y-44756400D01*
X221659972Y-44661162D01*
X221659972Y-44470686D01*
X221612353Y-44375448D01*
X221564734Y-44327829D01*
X221469496Y-44280210D01*
%TO.C,R4*%
X112863333Y-59677380D02*
X112530000Y-59201190D01*
X112291904Y-59677380D02*
X112291904Y-58677380D01*
X112672857Y-58677380D01*
X112768095Y-58725000D01*
X112815714Y-58772619D01*
X112863333Y-58867857D01*
X112863333Y-59010714D01*
X112815714Y-59105952D01*
X112768095Y-59153571D01*
X112672857Y-59201190D01*
X112291904Y-59201190D01*
X113720476Y-59010714D02*
X113720476Y-59677380D01*
X113482380Y-58629761D02*
X113244285Y-59344047D01*
X113863333Y-59344047D01*
%TO.C,R9*%
X131092380Y-53506666D02*
X130616190Y-53840000D01*
X131092380Y-54078095D02*
X130092380Y-54078095D01*
X130092380Y-53697142D01*
X130140000Y-53601904D01*
X130187619Y-53554285D01*
X130282857Y-53506666D01*
X130425714Y-53506666D01*
X130520952Y-53554285D01*
X130568571Y-53601904D01*
X130616190Y-53697142D01*
X130616190Y-54078095D01*
X131092380Y-53030476D02*
X131092380Y-52840000D01*
X131044761Y-52744761D01*
X130997142Y-52697142D01*
X130854285Y-52601904D01*
X130663809Y-52554285D01*
X130282857Y-52554285D01*
X130187619Y-52601904D01*
X130140000Y-52649523D01*
X130092380Y-52744761D01*
X130092380Y-52935238D01*
X130140000Y-53030476D01*
X130187619Y-53078095D01*
X130282857Y-53125714D01*
X130520952Y-53125714D01*
X130616190Y-53078095D01*
X130663809Y-53030476D01*
X130711428Y-52935238D01*
X130711428Y-52744761D01*
X130663809Y-52649523D01*
X130616190Y-52601904D01*
X130520952Y-52554285D01*
%TO.C,D9*%
X127431162Y-44891638D02*
X127431162Y-43891638D01*
X127669258Y-43891638D01*
X127812115Y-43939258D01*
X127907353Y-44034496D01*
X127954972Y-44129734D01*
X128002591Y-44320210D01*
X128002591Y-44463067D01*
X127954972Y-44653543D01*
X127907353Y-44748781D01*
X127812115Y-44844019D01*
X127669258Y-44891638D01*
X127431162Y-44891638D01*
X128478781Y-44891638D02*
X128669258Y-44891638D01*
X128764496Y-44844019D01*
X128812115Y-44796400D01*
X128907353Y-44653543D01*
X128954972Y-44463067D01*
X128954972Y-44082115D01*
X128907353Y-43986877D01*
X128859734Y-43939258D01*
X128764496Y-43891638D01*
X128574019Y-43891638D01*
X128478781Y-43939258D01*
X128431162Y-43986877D01*
X128383543Y-44082115D01*
X128383543Y-44320210D01*
X128431162Y-44415448D01*
X128478781Y-44463067D01*
X128574019Y-44510686D01*
X128764496Y-44510686D01*
X128859734Y-44463067D01*
X128907353Y-44415448D01*
X128954972Y-44320210D01*
%TO.C,R3*%
X112863333Y-80632380D02*
X112530000Y-80156190D01*
X112291904Y-80632380D02*
X112291904Y-79632380D01*
X112672857Y-79632380D01*
X112768095Y-79680000D01*
X112815714Y-79727619D01*
X112863333Y-79822857D01*
X112863333Y-79965714D01*
X112815714Y-80060952D01*
X112768095Y-80108571D01*
X112672857Y-80156190D01*
X112291904Y-80156190D01*
X113196666Y-79632380D02*
X113815714Y-79632380D01*
X113482380Y-80013333D01*
X113625238Y-80013333D01*
X113720476Y-80060952D01*
X113768095Y-80108571D01*
X113815714Y-80203809D01*
X113815714Y-80441904D01*
X113768095Y-80537142D01*
X113720476Y-80584761D01*
X113625238Y-80632380D01*
X113339523Y-80632380D01*
X113244285Y-80584761D01*
X113196666Y-80537142D01*
%TO.C,R7*%
X143343333Y-105692380D02*
X143010000Y-105216190D01*
X142771904Y-105692380D02*
X142771904Y-104692380D01*
X143152857Y-104692380D01*
X143248095Y-104740000D01*
X143295714Y-104787619D01*
X143343333Y-104882857D01*
X143343333Y-105025714D01*
X143295714Y-105120952D01*
X143248095Y-105168571D01*
X143152857Y-105216190D01*
X142771904Y-105216190D01*
X143676666Y-104692380D02*
X144343333Y-104692380D01*
X143914761Y-105692380D01*
%TO.C,R6*%
X143343333Y-85266638D02*
X143010000Y-84790448D01*
X142771904Y-85266638D02*
X142771904Y-84266638D01*
X143152857Y-84266638D01*
X143248095Y-84314258D01*
X143295714Y-84361877D01*
X143343333Y-84457115D01*
X143343333Y-84599972D01*
X143295714Y-84695210D01*
X143248095Y-84742829D01*
X143152857Y-84790448D01*
X142771904Y-84790448D01*
X144200476Y-84266638D02*
X144010000Y-84266638D01*
X143914761Y-84314258D01*
X143867142Y-84361877D01*
X143771904Y-84504734D01*
X143724285Y-84695210D01*
X143724285Y-85076162D01*
X143771904Y-85171400D01*
X143819523Y-85219019D01*
X143914761Y-85266638D01*
X144105238Y-85266638D01*
X144200476Y-85219019D01*
X144248095Y-85171400D01*
X144295714Y-85076162D01*
X144295714Y-84838067D01*
X144248095Y-84742829D01*
X144200476Y-84695210D01*
X144105238Y-84647591D01*
X143914761Y-84647591D01*
X143819523Y-84695210D01*
X143771904Y-84742829D01*
X143724285Y-84838067D01*
%TO.C,D7*%
X199816162Y-44851638D02*
X199816162Y-43851638D01*
X200054258Y-43851638D01*
X200197115Y-43899258D01*
X200292353Y-43994496D01*
X200339972Y-44089734D01*
X200387591Y-44280210D01*
X200387591Y-44423067D01*
X200339972Y-44613543D01*
X200292353Y-44708781D01*
X200197115Y-44804019D01*
X200054258Y-44851638D01*
X199816162Y-44851638D01*
X200720924Y-43851638D02*
X201387591Y-43851638D01*
X200959019Y-44851638D01*
%TO.C,D4*%
X95676162Y-44851638D02*
X95676162Y-43851638D01*
X95914258Y-43851638D01*
X96057115Y-43899258D01*
X96152353Y-43994496D01*
X96199972Y-44089734D01*
X96247591Y-44280210D01*
X96247591Y-44423067D01*
X96199972Y-44613543D01*
X96152353Y-44708781D01*
X96057115Y-44804019D01*
X95914258Y-44851638D01*
X95676162Y-44851638D01*
X97104734Y-44184972D02*
X97104734Y-44851638D01*
X96866638Y-43804019D02*
X96628543Y-44518305D01*
X97247591Y-44518305D01*
%TO.C,R5*%
X143343333Y-64417380D02*
X143010000Y-63941190D01*
X142771904Y-64417380D02*
X142771904Y-63417380D01*
X143152857Y-63417380D01*
X143248095Y-63465000D01*
X143295714Y-63512619D01*
X143343333Y-63607857D01*
X143343333Y-63750714D01*
X143295714Y-63845952D01*
X143248095Y-63893571D01*
X143152857Y-63941190D01*
X142771904Y-63941190D01*
X144248095Y-63417380D02*
X143771904Y-63417380D01*
X143724285Y-63893571D01*
X143771904Y-63845952D01*
X143867142Y-63798333D01*
X144105238Y-63798333D01*
X144200476Y-63845952D01*
X144248095Y-63893571D01*
X144295714Y-63988809D01*
X144295714Y-64226904D01*
X144248095Y-64322142D01*
X144200476Y-64369761D01*
X144105238Y-64417380D01*
X143867142Y-64417380D01*
X143771904Y-64369761D01*
X143724285Y-64322142D01*
%TO.C,REF\u002A\u002A*%
X126936666Y-168312380D02*
X126603333Y-167836190D01*
X126365238Y-168312380D02*
X126365238Y-167312380D01*
X126746190Y-167312380D01*
X126841428Y-167360000D01*
X126889047Y-167407619D01*
X126936666Y-167502857D01*
X126936666Y-167645714D01*
X126889047Y-167740952D01*
X126841428Y-167788571D01*
X126746190Y-167836190D01*
X126365238Y-167836190D01*
X127365238Y-167788571D02*
X127698571Y-167788571D01*
X127841428Y-168312380D02*
X127365238Y-168312380D01*
X127365238Y-167312380D01*
X127841428Y-167312380D01*
X128603333Y-167788571D02*
X128270000Y-167788571D01*
X128270000Y-168312380D02*
X128270000Y-167312380D01*
X128746190Y-167312380D01*
X129270000Y-167312380D02*
X129270000Y-167550476D01*
X129031904Y-167455238D02*
X129270000Y-167550476D01*
X129508095Y-167455238D01*
X129127142Y-167740952D02*
X129270000Y-167550476D01*
X129412857Y-167740952D01*
X130031904Y-167312380D02*
X130031904Y-167550476D01*
X129793809Y-167455238D02*
X130031904Y-167550476D01*
X130270000Y-167455238D01*
X129889047Y-167740952D02*
X130031904Y-167550476D01*
X130174761Y-167740952D01*
%TO.C,D3*%
X75356162Y-44851638D02*
X75356162Y-43851638D01*
X75594258Y-43851638D01*
X75737115Y-43899258D01*
X75832353Y-43994496D01*
X75879972Y-44089734D01*
X75927591Y-44280210D01*
X75927591Y-44423067D01*
X75879972Y-44613543D01*
X75832353Y-44708781D01*
X75737115Y-44804019D01*
X75594258Y-44851638D01*
X75356162Y-44851638D01*
X76260924Y-43851638D02*
X76879972Y-43851638D01*
X76546638Y-44232591D01*
X76689496Y-44232591D01*
X76784734Y-44280210D01*
X76832353Y-44327829D01*
X76879972Y-44423067D01*
X76879972Y-44661162D01*
X76832353Y-44756400D01*
X76784734Y-44804019D01*
X76689496Y-44851638D01*
X76403781Y-44851638D01*
X76308543Y-44804019D01*
X76260924Y-44756400D01*
%TO.C,R8*%
X143343333Y-125906638D02*
X143010000Y-125430448D01*
X142771904Y-125906638D02*
X142771904Y-124906638D01*
X143152857Y-124906638D01*
X143248095Y-124954258D01*
X143295714Y-125001877D01*
X143343333Y-125097115D01*
X143343333Y-125239972D01*
X143295714Y-125335210D01*
X143248095Y-125382829D01*
X143152857Y-125430448D01*
X142771904Y-125430448D01*
X143914761Y-125335210D02*
X143819523Y-125287591D01*
X143771904Y-125239972D01*
X143724285Y-125144734D01*
X143724285Y-125097115D01*
X143771904Y-125001877D01*
X143819523Y-124954258D01*
X143914761Y-124906638D01*
X144105238Y-124906638D01*
X144200476Y-124954258D01*
X144248095Y-125001877D01*
X144295714Y-125097115D01*
X144295714Y-125144734D01*
X144248095Y-125239972D01*
X144200476Y-125287591D01*
X144105238Y-125335210D01*
X143914761Y-125335210D01*
X143819523Y-125382829D01*
X143771904Y-125430448D01*
X143724285Y-125525686D01*
X143724285Y-125716162D01*
X143771904Y-125811400D01*
X143819523Y-125859019D01*
X143914761Y-125906638D01*
X144105238Y-125906638D01*
X144200476Y-125859019D01*
X144248095Y-125811400D01*
X144295714Y-125716162D01*
X144295714Y-125525686D01*
X144248095Y-125430448D01*
X144200476Y-125382829D01*
X144105238Y-125335210D01*
%TO.C,R1*%
X112863333Y-121272380D02*
X112530000Y-120796190D01*
X112291904Y-121272380D02*
X112291904Y-120272380D01*
X112672857Y-120272380D01*
X112768095Y-120320000D01*
X112815714Y-120367619D01*
X112863333Y-120462857D01*
X112863333Y-120605714D01*
X112815714Y-120700952D01*
X112768095Y-120748571D01*
X112672857Y-120796190D01*
X112291904Y-120796190D01*
X113815714Y-121272380D02*
X113244285Y-121272380D01*
X113530000Y-121272380D02*
X113530000Y-120272380D01*
X113434761Y-120415238D01*
X113339523Y-120510476D01*
X113244285Y-120558095D01*
%TO.C,D5*%
X159176162Y-44851638D02*
X159176162Y-43851638D01*
X159414258Y-43851638D01*
X159557115Y-43899258D01*
X159652353Y-43994496D01*
X159699972Y-44089734D01*
X159747591Y-44280210D01*
X159747591Y-44423067D01*
X159699972Y-44613543D01*
X159652353Y-44708781D01*
X159557115Y-44804019D01*
X159414258Y-44851638D01*
X159176162Y-44851638D01*
X160652353Y-43851638D02*
X160176162Y-43851638D01*
X160128543Y-44327829D01*
X160176162Y-44280210D01*
X160271400Y-44232591D01*
X160509496Y-44232591D01*
X160604734Y-44280210D01*
X160652353Y-44327829D01*
X160699972Y-44423067D01*
X160699972Y-44661162D01*
X160652353Y-44756400D01*
X160604734Y-44804019D01*
X160509496Y-44851638D01*
X160271400Y-44851638D01*
X160176162Y-44804019D01*
X160128543Y-44756400D01*
%TO.C,D6*%
X179496162Y-44851638D02*
X179496162Y-43851638D01*
X179734258Y-43851638D01*
X179877115Y-43899258D01*
X179972353Y-43994496D01*
X180019972Y-44089734D01*
X180067591Y-44280210D01*
X180067591Y-44423067D01*
X180019972Y-44613543D01*
X179972353Y-44708781D01*
X179877115Y-44804019D01*
X179734258Y-44851638D01*
X179496162Y-44851638D01*
X180924734Y-43851638D02*
X180734258Y-43851638D01*
X180639019Y-43899258D01*
X180591400Y-43946877D01*
X180496162Y-44089734D01*
X180448543Y-44280210D01*
X180448543Y-44661162D01*
X180496162Y-44756400D01*
X180543781Y-44804019D01*
X180639019Y-44851638D01*
X180829496Y-44851638D01*
X180924734Y-44804019D01*
X180972353Y-44756400D01*
X181019972Y-44661162D01*
X181019972Y-44423067D01*
X180972353Y-44327829D01*
X180924734Y-44280210D01*
X180829496Y-44232591D01*
X180639019Y-44232591D01*
X180543781Y-44280210D01*
X180496162Y-44327829D01*
X180448543Y-44423067D01*
%TO.C,U1*%
X115022380Y-146811904D02*
X115831904Y-146811904D01*
X115927142Y-146764285D01*
X115974761Y-146716666D01*
X116022380Y-146621428D01*
X116022380Y-146430952D01*
X115974761Y-146335714D01*
X115927142Y-146288095D01*
X115831904Y-146240476D01*
X115022380Y-146240476D01*
X116022380Y-145240476D02*
X116022380Y-145811904D01*
X116022380Y-145526190D02*
X115022380Y-145526190D01*
X115165238Y-145621428D01*
X115260476Y-145716666D01*
X115308095Y-145811904D01*
%TO.C,J1*%
X127966666Y-186807380D02*
X127966666Y-187521666D01*
X127919047Y-187664523D01*
X127823809Y-187759761D01*
X127680952Y-187807380D01*
X127585714Y-187807380D01*
X128966666Y-187807380D02*
X128395238Y-187807380D01*
X128680952Y-187807380D02*
X128680952Y-186807380D01*
X128585714Y-186950238D01*
X128490476Y-187045476D01*
X128395238Y-187093095D01*
%TO.C,R2*%
X112863333Y-100846638D02*
X112530000Y-100370448D01*
X112291904Y-100846638D02*
X112291904Y-99846638D01*
X112672857Y-99846638D01*
X112768095Y-99894258D01*
X112815714Y-99941877D01*
X112863333Y-100037115D01*
X112863333Y-100179972D01*
X112815714Y-100275210D01*
X112768095Y-100322829D01*
X112672857Y-100370448D01*
X112291904Y-100370448D01*
X113244285Y-99941877D02*
X113291904Y-99894258D01*
X113387142Y-99846638D01*
X113625238Y-99846638D01*
X113720476Y-99894258D01*
X113768095Y-99941877D01*
X113815714Y-100037115D01*
X113815714Y-100132353D01*
X113768095Y-100275210D01*
X113196666Y-100846638D01*
X113815714Y-100846638D01*
%TO.C,D2*%
X55041162Y-44891638D02*
X55041162Y-43891638D01*
X55279258Y-43891638D01*
X55422115Y-43939258D01*
X55517353Y-44034496D01*
X55564972Y-44129734D01*
X55612591Y-44320210D01*
X55612591Y-44463067D01*
X55564972Y-44653543D01*
X55517353Y-44748781D01*
X55422115Y-44844019D01*
X55279258Y-44891638D01*
X55041162Y-44891638D01*
X55993543Y-43986877D02*
X56041162Y-43939258D01*
X56136400Y-43891638D01*
X56374496Y-43891638D01*
X56469734Y-43939258D01*
X56517353Y-43986877D01*
X56564972Y-44082115D01*
X56564972Y-44177353D01*
X56517353Y-44320210D01*
X55945924Y-44891638D01*
X56564972Y-44891638D01*
%TO.C,LS1*%
X127521400Y-102052380D02*
X127045210Y-102052380D01*
X127045210Y-101052380D01*
X127807115Y-102004761D02*
X127949972Y-102052380D01*
X128188067Y-102052380D01*
X128283305Y-102004761D01*
X128330924Y-101957142D01*
X128378543Y-101861904D01*
X128378543Y-101766666D01*
X128330924Y-101671428D01*
X128283305Y-101623809D01*
X128188067Y-101576190D01*
X127997591Y-101528571D01*
X127902353Y-101480952D01*
X127854734Y-101433333D01*
X127807115Y-101338095D01*
X127807115Y-101242857D01*
X127854734Y-101147619D01*
X127902353Y-101100000D01*
X127997591Y-101052380D01*
X128235686Y-101052380D01*
X128378543Y-101100000D01*
X129330924Y-102052380D02*
X128759496Y-102052380D01*
X129045210Y-102052380D02*
X129045210Y-101052380D01*
X128949972Y-101195238D01*
X128854734Y-101290476D01*
X128759496Y-101338095D01*
%TO.C,D1*%
X34716162Y-44891638D02*
X34716162Y-43891638D01*
X34954258Y-43891638D01*
X35097115Y-43939258D01*
X35192353Y-44034496D01*
X35239972Y-44129734D01*
X35287591Y-44320210D01*
X35287591Y-44463067D01*
X35239972Y-44653543D01*
X35192353Y-44748781D01*
X35097115Y-44844019D01*
X34954258Y-44891638D01*
X34716162Y-44891638D01*
X36239972Y-44891638D02*
X35668543Y-44891638D01*
X35954258Y-44891638D02*
X35954258Y-43891638D01*
X35859019Y-44034496D01*
X35763781Y-44129734D01*
X35668543Y-44177353D01*
D11*
%TO.C,SW1*%
X133350000Y-80670000D02*
X133350000Y-97130000D01*
X133350000Y-97130000D02*
X123190000Y-97130000D01*
X124970000Y-80670000D02*
X126520000Y-80670000D01*
X123190000Y-80670000D02*
X133350000Y-80670000D01*
D12*
X126800000Y-97940000D02*
G75*
G03*
X126800000Y-97940000I-100000J0D01*
G01*
D11*
X123190000Y-80670000D02*
X123190000Y-97130000D01*
D13*
%TO.C,D8*%
X223434258Y-36149258D02*
X223434258Y-29989258D01*
X219604258Y-36149258D02*
X219604258Y-36149258D01*
X217914258Y-35029258D02*
X218314258Y-35029258D01*
X218314258Y-36149258D02*
X218314258Y-29989258D01*
X218314258Y-36149258D02*
X217914258Y-36149258D01*
X219604258Y-41359258D02*
X219604258Y-36149258D01*
X223434258Y-36149258D02*
X218314258Y-36149258D01*
X219604258Y-41359258D02*
X219604258Y-41359258D01*
X217914258Y-36149258D02*
X217914258Y-35029258D01*
X222144258Y-41359258D02*
X222144258Y-36149258D01*
X222144258Y-36149258D02*
X222144258Y-41359258D01*
X219604258Y-36149258D02*
X219604258Y-41359258D01*
X222144258Y-41359258D02*
X222144258Y-41359258D01*
X218314258Y-35029258D02*
X218314258Y-36149258D01*
X222144258Y-36149258D02*
X222144258Y-36149258D01*
X223434258Y-29989258D02*
G75*
G03*
X218314258Y-29989258I-2560000J0D01*
G01*
%TO.C,R4*%
X109760000Y-60555000D02*
X109760000Y-60225000D01*
X109760000Y-60225000D02*
X116300000Y-60225000D01*
X116300000Y-60225000D02*
X116300000Y-60555000D01*
X109760000Y-62635000D02*
X109760000Y-62965000D01*
X109760000Y-62965000D02*
X116300000Y-62965000D01*
X116300000Y-62965000D02*
X116300000Y-62635000D01*
%TO.C,R9*%
X129640000Y-50070000D02*
X129640000Y-56610000D01*
X129310000Y-50070000D02*
X129640000Y-50070000D01*
X127230000Y-50070000D02*
X126900000Y-50070000D01*
X129640000Y-56610000D02*
X129310000Y-56610000D01*
X126900000Y-56610000D02*
X127230000Y-56610000D01*
X126900000Y-50070000D02*
X126900000Y-56610000D01*
%TO.C,D9*%
X125209258Y-36189258D02*
X125209258Y-35069258D01*
X129439258Y-36189258D02*
X129439258Y-36189258D01*
X125609258Y-35069258D02*
X125609258Y-36189258D01*
X126899258Y-41399258D02*
X126899258Y-41399258D01*
X125209258Y-35069258D02*
X125609258Y-35069258D01*
X126899258Y-36189258D02*
X126899258Y-41399258D01*
X125609258Y-36189258D02*
X125609258Y-30029258D01*
X130729258Y-36189258D02*
X130729258Y-30029258D01*
X129439258Y-41399258D02*
X129439258Y-41399258D01*
X126899258Y-41399258D02*
X126899258Y-36189258D01*
X126899258Y-36189258D02*
X126899258Y-36189258D01*
X125609258Y-36189258D02*
X125209258Y-36189258D01*
X130729258Y-36189258D02*
X125609258Y-36189258D01*
X129439258Y-36189258D02*
X129439258Y-41399258D01*
X129439258Y-41399258D02*
X129439258Y-36189258D01*
X130729258Y-30029258D02*
G75*
G03*
X125609258Y-30029258I-2560000J0D01*
G01*
%TO.C,R3*%
X109760000Y-81510000D02*
X109760000Y-81180000D01*
X109760000Y-81180000D02*
X116300000Y-81180000D01*
X109760000Y-83590000D02*
X109760000Y-83920000D01*
X109760000Y-83920000D02*
X116300000Y-83920000D01*
X116300000Y-81180000D02*
X116300000Y-81510000D01*
X116300000Y-83920000D02*
X116300000Y-83590000D01*
%TO.C,R7*%
X146780000Y-103910000D02*
X146780000Y-104240000D01*
X146780000Y-101500000D02*
X140240000Y-101500000D01*
X146780000Y-104240000D02*
X140240000Y-104240000D01*
X146780000Y-101830000D02*
X146780000Y-101500000D01*
X140240000Y-104240000D02*
X140240000Y-103910000D01*
X140240000Y-101500000D02*
X140240000Y-101830000D01*
%TO.C,R6*%
X146780000Y-81404258D02*
X146780000Y-81074258D01*
X140240000Y-81074258D02*
X140240000Y-81404258D01*
X146780000Y-83814258D02*
X140240000Y-83814258D01*
X146780000Y-81074258D02*
X140240000Y-81074258D01*
X146780000Y-83484258D02*
X146780000Y-83814258D01*
X140240000Y-83814258D02*
X140240000Y-83484258D01*
%TO.C,D7*%
X197994258Y-35029258D02*
X197994258Y-36149258D01*
X197994258Y-36149258D02*
X197994258Y-29989258D01*
X203114258Y-36149258D02*
X203114258Y-29989258D01*
X201824258Y-41359258D02*
X201824258Y-36149258D01*
X199284258Y-36149258D02*
X199284258Y-36149258D01*
X199284258Y-41359258D02*
X199284258Y-36149258D01*
X197994258Y-36149258D02*
X197594258Y-36149258D01*
X201824258Y-36149258D02*
X201824258Y-36149258D01*
X203114258Y-36149258D02*
X197994258Y-36149258D01*
X197594258Y-35029258D02*
X197994258Y-35029258D01*
X201824258Y-36149258D02*
X201824258Y-41359258D01*
X197594258Y-36149258D02*
X197594258Y-35029258D01*
X199284258Y-41359258D02*
X199284258Y-41359258D01*
X199284258Y-36149258D02*
X199284258Y-41359258D01*
X201824258Y-41359258D02*
X201824258Y-41359258D01*
X203114258Y-29989258D02*
G75*
G03*
X197994258Y-29989258I-2560000J0D01*
G01*
%TO.C,D4*%
X93854258Y-36149258D02*
X93854258Y-29989258D01*
X93854258Y-36149258D02*
X93454258Y-36149258D01*
X97684258Y-41359258D02*
X97684258Y-36149258D01*
X98974258Y-36149258D02*
X93854258Y-36149258D01*
X93454258Y-35029258D02*
X93854258Y-35029258D01*
X95144258Y-36149258D02*
X95144258Y-36149258D01*
X97684258Y-36149258D02*
X97684258Y-36149258D01*
X97684258Y-36149258D02*
X97684258Y-41359258D01*
X93454258Y-36149258D02*
X93454258Y-35029258D01*
X95144258Y-41359258D02*
X95144258Y-36149258D01*
X95144258Y-41359258D02*
X95144258Y-41359258D01*
X98974258Y-36149258D02*
X98974258Y-29989258D01*
X95144258Y-36149258D02*
X95144258Y-41359258D01*
X93854258Y-35029258D02*
X93854258Y-36149258D01*
X97684258Y-41359258D02*
X97684258Y-41359258D01*
X98974258Y-29989258D02*
G75*
G03*
X93854258Y-29989258I-2560000J0D01*
G01*
%TO.C,R5*%
X146780000Y-62965000D02*
X140240000Y-62965000D01*
X146780000Y-60555000D02*
X146780000Y-60225000D01*
X140240000Y-60225000D02*
X140240000Y-60555000D01*
X146780000Y-62635000D02*
X146780000Y-62965000D01*
X140240000Y-62965000D02*
X140240000Y-62635000D01*
X146780000Y-60225000D02*
X140240000Y-60225000D01*
%TO.C,D3*%
X73534258Y-35029258D02*
X73534258Y-36149258D01*
X74824258Y-36149258D02*
X74824258Y-41359258D01*
X78654258Y-36149258D02*
X73534258Y-36149258D01*
X74824258Y-41359258D02*
X74824258Y-41359258D01*
X78654258Y-36149258D02*
X78654258Y-29989258D01*
X73134258Y-35029258D02*
X73534258Y-35029258D01*
X77364258Y-36149258D02*
X77364258Y-41359258D01*
X73534258Y-36149258D02*
X73534258Y-29989258D01*
X77364258Y-36149258D02*
X77364258Y-36149258D01*
X73534258Y-36149258D02*
X73134258Y-36149258D01*
X77364258Y-41359258D02*
X77364258Y-36149258D01*
X77364258Y-41359258D02*
X77364258Y-41359258D01*
X74824258Y-36149258D02*
X74824258Y-36149258D01*
X73134258Y-36149258D02*
X73134258Y-35029258D01*
X74824258Y-41359258D02*
X74824258Y-36149258D01*
X78654258Y-29989258D02*
G75*
G03*
X73534258Y-29989258I-2560000J0D01*
G01*
%TO.C,R8*%
X140240000Y-121714258D02*
X140240000Y-122044258D01*
X146780000Y-124454258D02*
X140240000Y-124454258D01*
X146780000Y-122044258D02*
X146780000Y-121714258D01*
X146780000Y-124124258D02*
X146780000Y-124454258D01*
X140240000Y-124454258D02*
X140240000Y-124124258D01*
X146780000Y-121714258D02*
X140240000Y-121714258D01*
%TO.C,R1*%
X109760000Y-124560000D02*
X116300000Y-124560000D01*
X109760000Y-121820000D02*
X116300000Y-121820000D01*
X109760000Y-122150000D02*
X109760000Y-121820000D01*
X116300000Y-121820000D02*
X116300000Y-122150000D01*
X116300000Y-124560000D02*
X116300000Y-124230000D01*
X109760000Y-124230000D02*
X109760000Y-124560000D01*
%TO.C,D5*%
X161184258Y-41359258D02*
X161184258Y-36149258D01*
X157354258Y-36149258D02*
X156954258Y-36149258D01*
X158644258Y-36149258D02*
X158644258Y-36149258D01*
X156954258Y-35029258D02*
X157354258Y-35029258D01*
X157354258Y-35029258D02*
X157354258Y-36149258D01*
X162474258Y-36149258D02*
X157354258Y-36149258D01*
X158644258Y-36149258D02*
X158644258Y-41359258D01*
X158644258Y-41359258D02*
X158644258Y-41359258D01*
X162474258Y-36149258D02*
X162474258Y-29989258D01*
X158644258Y-41359258D02*
X158644258Y-36149258D01*
X157354258Y-36149258D02*
X157354258Y-29989258D01*
X161184258Y-36149258D02*
X161184258Y-41359258D01*
X156954258Y-36149258D02*
X156954258Y-35029258D01*
X161184258Y-41359258D02*
X161184258Y-41359258D01*
X161184258Y-36149258D02*
X161184258Y-36149258D01*
X162474258Y-29989258D02*
G75*
G03*
X157354258Y-29989258I-2560000J0D01*
G01*
%TO.C,D6*%
X181504258Y-36149258D02*
X181504258Y-36149258D01*
X177674258Y-35029258D02*
X177674258Y-36149258D01*
X178964258Y-36149258D02*
X178964258Y-41359258D01*
X178964258Y-41359258D02*
X178964258Y-41359258D01*
X181504258Y-41359258D02*
X181504258Y-36149258D01*
X178964258Y-36149258D02*
X178964258Y-36149258D01*
X177674258Y-36149258D02*
X177674258Y-29989258D01*
X177274258Y-35029258D02*
X177674258Y-35029258D01*
X177274258Y-36149258D02*
X177274258Y-35029258D01*
X177674258Y-36149258D02*
X177274258Y-36149258D01*
X181504258Y-36149258D02*
X181504258Y-41359258D01*
X182794258Y-36149258D02*
X182794258Y-29989258D01*
X182794258Y-36149258D02*
X177674258Y-36149258D01*
X178964258Y-41359258D02*
X178964258Y-36149258D01*
X181504258Y-41359258D02*
X181504258Y-41359258D01*
X182794258Y-29989258D02*
G75*
G03*
X177674258Y-29989258I-2560000J0D01*
G01*
D12*
%TO.C,U1*%
X119380000Y-157480000D02*
X137160000Y-157480000D01*
X137160000Y-157480000D02*
X137160000Y-136652000D01*
X137160000Y-136652000D02*
X119380000Y-136652000D01*
X119380000Y-136652000D02*
X119380000Y-157480000D01*
D10*
%TO.C,J1*%
X126000000Y-188155000D02*
X128000000Y-188155000D01*
X124150000Y-188930000D02*
X124150000Y-188455000D01*
X132450000Y-188455000D02*
X132450000Y-188930000D01*
X132450000Y-191655000D02*
X132450000Y-191180000D01*
X124150000Y-188455000D02*
X132450000Y-188455000D01*
X124150000Y-191180000D02*
X124150000Y-191655000D01*
X124150000Y-191655000D02*
X132450000Y-191655000D01*
D13*
%TO.C,R2*%
X116300000Y-101394258D02*
X116300000Y-101724258D01*
X109760000Y-101394258D02*
X116300000Y-101394258D01*
X109760000Y-101724258D02*
X109760000Y-101394258D01*
X116300000Y-104134258D02*
X116300000Y-103804258D01*
X109760000Y-104134258D02*
X116300000Y-104134258D01*
X109760000Y-103804258D02*
X109760000Y-104134258D01*
%TO.C,D2*%
X57049258Y-36189258D02*
X57049258Y-36189258D01*
X58339258Y-36189258D02*
X58339258Y-30029258D01*
X53219258Y-36189258D02*
X52819258Y-36189258D01*
X54509258Y-36189258D02*
X54509258Y-41399258D01*
X54509258Y-36189258D02*
X54509258Y-36189258D01*
X53219258Y-36189258D02*
X53219258Y-30029258D01*
X52819258Y-35069258D02*
X53219258Y-35069258D01*
X54509258Y-41399258D02*
X54509258Y-41399258D01*
X58339258Y-36189258D02*
X53219258Y-36189258D01*
X52819258Y-36189258D02*
X52819258Y-35069258D01*
X57049258Y-36189258D02*
X57049258Y-41399258D01*
X57049258Y-41399258D02*
X57049258Y-36189258D01*
X57049258Y-41399258D02*
X57049258Y-41399258D01*
X53219258Y-35069258D02*
X53219258Y-36189258D01*
X54509258Y-41399258D02*
X54509258Y-36189258D01*
X58339258Y-30029258D02*
G75*
G03*
X53219258Y-30029258I-2560000J0D01*
G01*
%TO.C,LS1*%
X134260258Y-109114258D02*
G75*
G03*
X134260258Y-109114258I-6096000J0D01*
G01*
%TO.C,D1*%
X34184258Y-41399258D02*
X34184258Y-41399258D01*
X32894258Y-36189258D02*
X32894258Y-30029258D01*
X38014258Y-36189258D02*
X32894258Y-36189258D01*
X36724258Y-41399258D02*
X36724258Y-36189258D01*
X34184258Y-41399258D02*
X34184258Y-36189258D01*
X36724258Y-36189258D02*
X36724258Y-41399258D01*
X32894258Y-35069258D02*
X32894258Y-36189258D01*
X32894258Y-36189258D02*
X32494258Y-36189258D01*
X36724258Y-36189258D02*
X36724258Y-36189258D01*
X32494258Y-36189258D02*
X32494258Y-35069258D01*
X32494258Y-35069258D02*
X32894258Y-35069258D01*
X34184258Y-36189258D02*
X34184258Y-36189258D01*
X38014258Y-36189258D02*
X38014258Y-30029258D01*
X36724258Y-41399258D02*
X36724258Y-41399258D01*
X34184258Y-36189258D02*
X34184258Y-41399258D01*
X38014258Y-30029258D02*
G75*
G03*
X32894258Y-30029258I-2560000J0D01*
G01*
%TD*%
M02*
