M48
; DRILL file {KiCad (6.0.6)} date Sun 10 Jul 2022 12:11:46 AM EDT
; FORMAT={-:-/ absolute / inch / decimal}
; #@! TF.CreationDate,2022-07-10T00:11:46-04:00
; #@! TF.GenerationSoftware,Kicad,Pcbnew,(6.0.6)
; #@! TF.FileFunction,Plated,1,2,PTH
FMAT,2
INCH
; #@! TA.AperFunction,Plated,PTH,ViaDrill
T1C0.0157
; #@! TA.AperFunction,Plated,PTH,ComponentDrill
T2C0.0173
; #@! TA.AperFunction,Plated,PTH,ComponentDrill
T3C0.0300
; #@! TA.AperFunction,Plated,PTH,ComponentDrill
T4C0.0315
; #@! TA.AperFunction,Plated,PTH,ComponentDrill
T5C0.0354
; #@! TA.AperFunction,Plated,PTH,ComponentDrill
T6C0.0531
; #@! TA.AperFunction,Plated,PTH,ComponentDrill
T7C0.0689
%
G90
G05
T1
X4.85Y-4.6
X5.0Y-5.8
X5.05Y-5.7
X5.2Y-5.75
X5.25Y-4.6
T2
X5.0Y-7.4738
X5.0256Y-7.5132
X5.0512Y-7.4738
X5.0768Y-7.5132
X5.1024Y-7.4738
T3
X4.75Y-5.5
X4.75Y-5.6
X4.75Y-5.7
X4.75Y-5.8
X4.75Y-5.9
X4.75Y-6.0
X4.75Y-6.1
X4.9458Y-4.2958
X5.1458Y-4.2958
X5.35Y-5.5
X5.35Y-5.6
X5.35Y-5.7
X5.35Y-5.8
X5.35Y-5.9
X5.35Y-6.0
X5.35Y-6.1
T4
X4.3Y-2.425
X4.3Y-3.25
X4.3Y-4.0458
X4.3Y-4.85
X4.6Y-2.425
X4.6Y-3.25
X4.6Y-4.0458
X4.6Y-4.85
X5.05Y-1.95
X5.05Y-2.25
X5.5Y-2.425
X5.5Y-3.2458
X5.5Y-4.05
X5.5Y-4.8458
X5.8Y-2.425
X5.8Y-3.2458
X5.8Y-4.05
X5.8Y-4.8458
T5
X1.3458Y-1.6724
X1.4458Y-1.6724
X2.146Y-1.6724
X2.246Y-1.6724
X2.9458Y-1.6708
X3.0458Y-1.6708
X3.7458Y-1.6708
X3.8458Y-1.6708
X4.996Y-1.6724
X5.096Y-1.6724
X6.2458Y-1.6708
X6.3458Y-1.6708
X7.0458Y-1.6708
X7.1458Y-1.6708
X7.8458Y-1.6708
X7.9458Y-1.6708
X8.6458Y-1.6708
X8.7458Y-1.6708
T6
X4.9104Y-7.4825
X5.1919Y-7.4825
T7
X5.0071Y-3.5
X5.0071Y-3.6811
T0
M30
