M48
; DRILL file {KiCad (6.0.7)} date Fri 16 Sep 2022 04:34:05 PM EDT
; FORMAT={-:-/ absolute / inch / decimal}
; #@! TF.CreationDate,2022-09-16T16:34:05-04:00
; #@! TF.GenerationSoftware,Kicad,Pcbnew,(6.0.7)
; #@! TF.FileFunction,Plated,1,2,PTH
FMAT,2
INCH
; #@! TA.AperFunction,Plated,PTH,ViaDrill
T1C0.0157
; #@! TA.AperFunction,Plated,PTH,ComponentDrill
T2C0.0197
; #@! TA.AperFunction,Plated,PTH,ComponentDrill
T3C0.0300
; #@! TA.AperFunction,Plated,PTH,ComponentDrill
T4C0.0315
; #@! TA.AperFunction,Plated,PTH,ComponentDrill
T5C0.0354
%
G90
G05
T1
X4.99Y-7.25
X5.04Y-5.07
X5.04Y-5.55
X5.07Y-5.45
X5.11Y-7.25
T3
X4.75Y-5.45
X4.75Y-5.55
X4.75Y-5.65
X4.75Y-5.75
X4.75Y-5.85
X4.75Y-5.95
X4.75Y-6.05
X4.95Y-4.6
X5.15Y-4.6
X5.35Y-5.45
X5.35Y-5.55
X5.35Y-5.65
X5.35Y-5.75
X5.35Y-5.85
X5.35Y-5.95
X5.35Y-6.05
T4
X4.3Y-2.425
X4.3Y-3.25
X4.3Y-4.0458
X4.3Y-4.85
X4.6Y-2.425
X4.6Y-3.25
X4.6Y-4.0458
X4.6Y-4.85
X5.05Y-1.95
X5.05Y-2.25
X5.5Y-2.425
X5.5Y-3.2458
X5.5Y-4.05
X5.5Y-4.8458
X5.8Y-2.425
X5.8Y-3.2458
X5.8Y-4.05
X5.8Y-4.8458
T5
X1.3458Y-1.6724
X1.4458Y-1.6724
X2.146Y-1.6724
X2.246Y-1.6724
X2.9458Y-1.6708
X3.0458Y-1.6708
X3.7458Y-1.6708
X3.8458Y-1.6708
X4.996Y-1.6724
X5.05Y-3.77
X5.05Y-3.87
X5.05Y-3.97
X5.096Y-1.6724
X6.2458Y-1.6708
X6.3458Y-1.6708
X7.0458Y-1.6708
X7.1458Y-1.6708
X7.8458Y-1.6708
X7.9458Y-1.6708
X8.6458Y-1.6708
X8.7458Y-1.6708
T2
G00X4.8819Y-7.4738
M15
G01X4.8819Y-7.4462
M16
G05
G00X5.2181Y-7.4738
M15
G01X5.2181Y-7.4462
M16
G05
T0
M30
