%TF.GenerationSoftware,KiCad,Pcbnew,(6.0.7)*%
%TF.CreationDate,2022-08-28T16:25:01-04:00*%
%TF.ProjectId,CircuitPythonukiah,43697263-7569-4745-9079-74686f6e756b,rev?*%
%TF.SameCoordinates,Original*%
%TF.FileFunction,Copper,L2,Bot*%
%TF.FilePolarity,Positive*%
%FSLAX46Y46*%
G04 Gerber Fmt 4.6, Leading zero omitted, Abs format (unit mm)*
G04 Created by KiCad (PCBNEW (6.0.7)) date 2022-08-28 16:25:01*
%MOMM*%
%LPD*%
G01*
G04 APERTURE LIST*
%TA.AperFunction,ComponentPad*%
%ADD10R,1.800000X1.800000*%
%TD*%
%TA.AperFunction,ComponentPad*%
%ADD11C,1.800000*%
%TD*%
%TA.AperFunction,ComponentPad*%
%ADD12C,1.600000*%
%TD*%
%TA.AperFunction,ComponentPad*%
%ADD13O,1.600000X1.600000*%
%TD*%
%TA.AperFunction,ComponentPad*%
%ADD14C,1.524000*%
%TD*%
%TA.AperFunction,ComponentPad*%
%ADD15C,1.676400*%
%TD*%
%TA.AperFunction,SMDPad,CuDef*%
%ADD16R,0.700000X4.010000*%
%TD*%
%TA.AperFunction,SMDPad,CuDef*%
%ADD17R,0.800000X4.010000*%
%TD*%
%TA.AperFunction,SMDPad,CuDef*%
%ADD18R,0.900000X4.010000*%
%TD*%
%TA.AperFunction,ComponentPad*%
%ADD19O,0.700000X1.400000*%
%TD*%
%TA.AperFunction,ViaPad*%
%ADD20C,0.800000*%
%TD*%
%TA.AperFunction,Conductor*%
%ADD21C,0.250000*%
%TD*%
G04 APERTURE END LIST*
D10*
%TO.P,D8,1,K*%
%TO.N,GND*%
X222144258Y-42439258D03*
D11*
%TO.P,D8,2,A*%
%TO.N,Net-(D8-Pad2)*%
X219604258Y-42439258D03*
%TD*%
D12*
%TO.P,R4,1*%
%TO.N,Net-(D4-Pad2)*%
X109220000Y-61595000D03*
D13*
%TO.P,R4,2*%
%TO.N,LED4*%
X116840000Y-61595000D03*
%TD*%
D12*
%TO.P,R9,1*%
%TO.N,Net-(D9-Pad2)*%
X128270000Y-49530000D03*
D13*
%TO.P,R9,2*%
%TO.N,SHAMASH*%
X128270000Y-57150000D03*
%TD*%
D10*
%TO.P,D9,1,K*%
%TO.N,GND*%
X129439258Y-42479258D03*
D11*
%TO.P,D9,2,A*%
%TO.N,Net-(D9-Pad2)*%
X126899258Y-42479258D03*
%TD*%
D12*
%TO.P,R3,1*%
%TO.N,Net-(D3-Pad2)*%
X109220000Y-82550000D03*
D13*
%TO.P,R3,2*%
%TO.N,LED3*%
X116840000Y-82550000D03*
%TD*%
D12*
%TO.P,R7,1*%
%TO.N,Net-(D7-Pad2)*%
X147320000Y-102870000D03*
D13*
%TO.P,R7,2*%
%TO.N,LED7*%
X139700000Y-102870000D03*
%TD*%
D12*
%TO.P,R6,1*%
%TO.N,Net-(D6-Pad2)*%
X147320000Y-82444258D03*
D13*
%TO.P,R6,2*%
%TO.N,LED6*%
X139700000Y-82444258D03*
%TD*%
D10*
%TO.P,D7,1,K*%
%TO.N,GND*%
X201824258Y-42439258D03*
D11*
%TO.P,D7,2,A*%
%TO.N,Net-(D7-Pad2)*%
X199284258Y-42439258D03*
%TD*%
D10*
%TO.P,D4,1,K*%
%TO.N,GND*%
X97684258Y-42439258D03*
D11*
%TO.P,D4,2,A*%
%TO.N,Net-(D4-Pad2)*%
X95144258Y-42439258D03*
%TD*%
D12*
%TO.P,R5,1*%
%TO.N,Net-(D5-Pad2)*%
X147320000Y-61595000D03*
D13*
%TO.P,R5,2*%
%TO.N,LED5*%
X139700000Y-61595000D03*
%TD*%
D10*
%TO.P,D3,1,K*%
%TO.N,GND*%
X77364258Y-42439258D03*
D11*
%TO.P,D3,2,A*%
%TO.N,Net-(D3-Pad2)*%
X74824258Y-42439258D03*
%TD*%
D12*
%TO.P,R8,1*%
%TO.N,Net-(D8-Pad2)*%
X147320000Y-123084258D03*
D13*
%TO.P,R8,2*%
%TO.N,LED8*%
X139700000Y-123084258D03*
%TD*%
D12*
%TO.P,R1,1*%
%TO.N,Net-(D1-Pad2)*%
X109220000Y-123190000D03*
D13*
%TO.P,R1,2*%
%TO.N,LED1*%
X116840000Y-123190000D03*
%TD*%
D10*
%TO.P,D5,1,K*%
%TO.N,GND*%
X161184258Y-42439258D03*
D11*
%TO.P,D5,2,A*%
%TO.N,Net-(D5-Pad2)*%
X158644258Y-42439258D03*
%TD*%
D10*
%TO.P,D6,1,K*%
%TO.N,GND*%
X181504258Y-42439258D03*
D11*
%TO.P,D6,2,A*%
%TO.N,Net-(D6-Pad2)*%
X178964258Y-42439258D03*
%TD*%
D14*
%TO.P,U1,1,5V*%
%TO.N,5V*%
X135890000Y-138430000D03*
%TO.P,U1,2,GND*%
%TO.N,GND*%
X135890000Y-140970000D03*
%TO.P,U1,3,3V*%
%TO.N,3V*%
X135890000Y-143510000D03*
%TO.P,U1,4,MO*%
%TO.N,LED8*%
X135890000Y-146050000D03*
%TO.P,U1,5,MI*%
%TO.N,LED7*%
X135890000Y-148590000D03*
%TO.P,U1,6,SCK*%
%TO.N,LED6*%
X135890000Y-151130000D03*
%TO.P,U1,7,RX*%
%TO.N,LED5*%
X135890000Y-153670000D03*
%TO.P,U1,8,A0*%
%TO.N,MUTE_BTN*%
X120650000Y-138430000D03*
%TO.P,U1,9,A1*%
%TO.N,SPKR*%
X120650000Y-140970000D03*
%TO.P,U1,10,A2*%
%TO.N,SHAMASH*%
X120650000Y-143510000D03*
%TO.P,U1,11,A3*%
%TO.N,LED1*%
X120650000Y-146050000D03*
%TO.P,U1,12,SDA*%
%TO.N,LED2*%
X120650000Y-148590000D03*
%TO.P,U1,13,SCL*%
%TO.N,LED3*%
X120650000Y-151130000D03*
%TO.P,U1,14,TX*%
%TO.N,LED4*%
X120650000Y-153670000D03*
%TD*%
D15*
%TO.P,SW1,1,A*%
%TO.N,MUTE_BTN*%
X128270000Y-95758000D03*
%TO.P,SW1,2,B*%
%TO.N,3V*%
X128270000Y-98298000D03*
%TO.P,SW1,3,C*%
%TO.N,unconnected-(SW1-Pad3)*%
X128270000Y-100838000D03*
%TD*%
D12*
%TO.P,R2,1*%
%TO.N,Net-(D2-Pad2)*%
X109220000Y-102764258D03*
D13*
%TO.P,R2,2*%
%TO.N,LED2*%
X116840000Y-102764258D03*
%TD*%
D10*
%TO.P,D2,1,K*%
%TO.N,GND*%
X57049258Y-42479258D03*
D11*
%TO.P,D2,2,A*%
%TO.N,Net-(D2-Pad2)*%
X54509258Y-42479258D03*
%TD*%
D14*
%TO.P,LS1,1,1*%
%TO.N,SPKR*%
X125730000Y-116840000D03*
%TO.P,LS1,2,2*%
%TO.N,GND*%
X130810000Y-116840000D03*
%TD*%
D10*
%TO.P,D1,1,K*%
%TO.N,GND*%
X36724258Y-42479258D03*
D11*
%TO.P,D1,2,A*%
%TO.N,Net-(D1-Pad2)*%
X34184258Y-42479258D03*
%TD*%
D16*
%TO.P,J1,A5,CC1*%
%TO.N,unconnected-(J1-PadA5)*%
X127770000Y-187679000D03*
D17*
%TO.P,J1,A9,VBUS*%
%TO.N,5V*%
X129790000Y-187679000D03*
D18*
%TO.P,J1,A12,GND*%
%TO.N,GND*%
X131020000Y-187679000D03*
D16*
%TO.P,J1,B5,CC2*%
%TO.N,unconnected-(J1-PadB5)*%
X128770000Y-187679000D03*
D17*
%TO.P,J1,B9,VBUS*%
%TO.N,5V*%
X126750000Y-187679000D03*
D18*
%TO.P,J1,B12,GND*%
%TO.N,GND*%
X125520000Y-187679000D03*
D19*
%TO.P,J1,S1,SHIELD*%
X132540000Y-189484000D03*
%TO.P,J1,S2,SHIELD*%
X124000000Y-189484000D03*
%TD*%
D20*
%TO.N,GND*%
X128016000Y-140970000D03*
X128016000Y-128778000D03*
%TO.N,5V*%
X129794000Y-184150000D03*
X126746000Y-184150000D03*
X128778000Y-138430000D03*
%TO.N,3V*%
X131572000Y-126492000D03*
X130810000Y-143510000D03*
%TD*%
D21*
%TO.N,GND*%
X131020000Y-187679000D02*
X131020000Y-182924000D01*
X57049258Y-54509258D02*
X57150000Y-54610000D01*
X163830000Y-71120000D02*
X170180000Y-71120000D01*
X139065000Y-100330000D02*
X137160000Y-100330000D01*
X179070000Y-50800000D02*
X181610000Y-48260000D01*
X120523000Y-121285000D02*
X128016000Y-128778000D01*
X57049258Y-42479258D02*
X57049258Y-54509258D01*
X131064000Y-182880000D02*
X126238000Y-182880000D01*
X135890000Y-179070000D02*
X135890000Y-160020000D01*
X158750000Y-100330000D02*
X165100000Y-93980000D01*
X135890000Y-187960000D02*
X134366000Y-189484000D01*
X137160000Y-65405000D02*
X137160000Y-64770000D01*
X131020000Y-182924000D02*
X131064000Y-182880000D01*
X129439258Y-45619258D02*
X129439258Y-42479258D01*
X175260000Y-93980000D02*
X191770000Y-77470000D01*
X77364258Y-42439258D02*
X77364258Y-54504258D01*
X97684258Y-49424258D02*
X97684258Y-42439258D01*
X137160000Y-116840000D02*
X137160000Y-119380000D01*
X81280000Y-93980000D02*
X91440000Y-93980000D01*
X36724258Y-42479258D02*
X36724258Y-63394258D01*
X130175000Y-46355000D02*
X129439258Y-45619258D01*
X130810000Y-116840000D02*
X137160000Y-116840000D01*
X91440000Y-93980000D02*
X97790000Y-100330000D01*
X201930000Y-48260000D02*
X201824258Y-48154258D01*
X102870000Y-80010000D02*
X119380000Y-80010000D01*
X137160000Y-64770000D02*
X138430000Y-63500000D01*
X209550000Y-77470000D02*
X218440000Y-68580000D01*
X119380000Y-100965000D02*
X119380000Y-100330000D01*
X74930000Y-114300000D02*
X87630000Y-114300000D01*
X36724258Y-63394258D02*
X44450000Y-71120000D01*
X162560000Y-120650000D02*
X168910000Y-114300000D01*
X199390000Y-59690000D02*
X199390000Y-50800000D01*
X180340000Y-114300000D02*
X209550000Y-85090000D01*
X119380000Y-121285000D02*
X120523000Y-121285000D01*
X191770000Y-67310000D02*
X199390000Y-59690000D01*
X117157500Y-63500000D02*
X114935000Y-63500000D01*
X57150000Y-62230000D02*
X68580000Y-73660000D01*
X135890000Y-187960000D02*
X135890000Y-179070000D01*
X128016000Y-152146000D02*
X135890000Y-160020000D01*
X145415000Y-59690000D02*
X150815991Y-59690000D01*
X179070000Y-57150000D02*
X179070000Y-50800000D01*
X172720000Y-68580000D02*
X172720000Y-63500000D01*
X68580000Y-73660000D02*
X68580000Y-81280000D01*
X44450000Y-83820000D02*
X74930000Y-114300000D01*
X135890000Y-179070000D02*
X132080000Y-182880000D01*
X119380000Y-100330000D02*
X97790000Y-100330000D01*
X128016000Y-140970000D02*
X128016000Y-152146000D01*
X111125000Y-59690000D02*
X107950000Y-59690000D01*
X137160000Y-65405000D02*
X133350000Y-65405000D01*
X119380000Y-100330000D02*
X119380000Y-82550000D01*
X138430000Y-120650000D02*
X162560000Y-120650000D01*
X201824258Y-48154258D02*
X201824258Y-42439258D01*
X181504258Y-48154258D02*
X181504258Y-42439258D01*
X138430000Y-63500000D02*
X141605000Y-63500000D01*
X165100000Y-93980000D02*
X175260000Y-93980000D01*
X154940000Y-80010000D02*
X163830000Y-71120000D01*
X94615000Y-121285000D02*
X119380000Y-121285000D01*
X168910000Y-114300000D02*
X180340000Y-114300000D01*
X134366000Y-189484000D02*
X132540000Y-189484000D01*
X77364258Y-54504258D02*
X102870000Y-80010000D01*
X170180000Y-71120000D02*
X172720000Y-68580000D01*
X68580000Y-81280000D02*
X81280000Y-93980000D01*
X119380000Y-80010000D02*
X119380000Y-65722500D01*
X119380000Y-65722500D02*
X117157500Y-63500000D01*
X137160000Y-102870000D02*
X137160000Y-82550000D01*
X191770000Y-77470000D02*
X191770000Y-67310000D01*
X57150000Y-54610000D02*
X57150000Y-62230000D01*
X139065000Y-100330000D02*
X158750000Y-100330000D01*
X135890000Y-140970000D02*
X128016000Y-140970000D01*
X137160000Y-119380000D02*
X138430000Y-120650000D01*
X218440000Y-46143516D02*
X222144258Y-42439258D01*
X199390000Y-50800000D02*
X201930000Y-48260000D01*
X137160000Y-116840000D02*
X137160000Y-102870000D01*
X161184258Y-49321733D02*
X161184258Y-42439258D01*
X119380000Y-80645000D02*
X119380000Y-80010000D01*
X150815991Y-59690000D02*
X161184258Y-49321733D01*
X130175000Y-62230000D02*
X130175000Y-46355000D01*
X141605000Y-63500000D02*
X145415000Y-59690000D01*
X119380000Y-116840000D02*
X119380000Y-120650000D01*
X87630000Y-114300000D02*
X94615000Y-121285000D01*
X209550000Y-85090000D02*
X209550000Y-77470000D01*
X172720000Y-63500000D02*
X179070000Y-57150000D01*
X126238000Y-182880000D02*
X125520000Y-183598000D01*
X119380000Y-116840000D02*
X119380000Y-100965000D01*
X119380000Y-82550000D02*
X119380000Y-80645000D01*
X44450000Y-71120000D02*
X44450000Y-83820000D01*
X107950000Y-59690000D02*
X97684258Y-49424258D01*
X139700000Y-80010000D02*
X137160000Y-80010000D01*
X181610000Y-48260000D02*
X181504258Y-48154258D01*
X132080000Y-182880000D02*
X131064000Y-182880000D01*
X137160000Y-82550000D02*
X137160000Y-65405000D01*
X114935000Y-63500000D02*
X111125000Y-59690000D01*
X218440000Y-68580000D02*
X218440000Y-46143516D01*
X119380000Y-120650000D02*
X119380000Y-121285000D01*
X133350000Y-65405000D02*
X130175000Y-62230000D01*
X139700000Y-80010000D02*
X154940000Y-80010000D01*
X125520000Y-183598000D02*
X125520000Y-187679000D01*
%TO.N,5V*%
X126746000Y-184150000D02*
X126750000Y-184154000D01*
X126750000Y-184154000D02*
X126750000Y-187679000D01*
X128778000Y-138430000D02*
X135890000Y-138430000D01*
X129794000Y-184150000D02*
X129790000Y-184154000D01*
X129790000Y-184154000D02*
X129790000Y-187679000D01*
%TO.N,3V*%
X128270000Y-98298000D02*
X123952000Y-102616000D01*
X132080000Y-125984000D02*
X131572000Y-126492000D01*
X127635000Y-114935000D02*
X127635000Y-117475000D01*
X130810000Y-143510000D02*
X135890000Y-143510000D01*
X127635000Y-117475000D02*
X132080000Y-121920000D01*
X132080000Y-121920000D02*
X132080000Y-125984000D01*
X123952000Y-102616000D02*
X123952000Y-111252000D01*
X123952000Y-111252000D02*
X127635000Y-114935000D01*
%TO.N,SHAMASH*%
X133096000Y-121666000D02*
X128270000Y-116840000D01*
X135890000Y-101600000D02*
X135890000Y-71120000D01*
X135890000Y-71120000D02*
X128270000Y-63500000D01*
X128270000Y-116840000D02*
X128270000Y-109220000D01*
X133096000Y-121666000D02*
X133096000Y-131064000D01*
X128270000Y-109220000D02*
X135890000Y-101600000D01*
X133096000Y-131064000D02*
X120650000Y-143510000D01*
X128270000Y-63500000D02*
X128270000Y-57150000D01*
%TO.N,MUTE_BTN*%
X123190000Y-100838000D02*
X128270000Y-95758000D01*
X129540000Y-129540000D02*
X120650000Y-138430000D01*
X123190000Y-116840000D02*
X123190000Y-100838000D01*
X129540000Y-123190000D02*
X123190000Y-116840000D01*
X129540000Y-123190000D02*
X129540000Y-129540000D01*
%TO.N,SPKR*%
X130810000Y-121920000D02*
X130810000Y-130810000D01*
X130810000Y-130810000D02*
X120650000Y-140970000D01*
X130810000Y-121920000D02*
X125730000Y-116840000D01*
%TD*%
M02*
