%TF.GenerationSoftware,KiCad,Pcbnew,(6.0.6)*%
%TF.CreationDate,2022-07-10T00:11:49-04:00*%
%TF.ProjectId,CircuitPythonukiah,43697263-7569-4745-9079-74686f6e756b,rev?*%
%TF.SameCoordinates,Original*%
%TF.FileFunction,Legend,Bot*%
%TF.FilePolarity,Positive*%
%FSLAX46Y46*%
G04 Gerber Fmt 4.6, Leading zero omitted, Abs format (unit mm)*
G04 Created by KiCad (PCBNEW (6.0.6)) date 2022-07-10 00:11:49*
%MOMM*%
%LPD*%
G01*
G04 APERTURE LIST*
%ADD10C,0.150000*%
%ADD11C,0.002540*%
G04 APERTURE END LIST*
D10*
X133420809Y-84007142D02*
X133468428Y-84054761D01*
X133611285Y-84102380D01*
X133706523Y-84102380D01*
X133849380Y-84054761D01*
X133944619Y-83959523D01*
X133992238Y-83864285D01*
X134039857Y-83673809D01*
X134039857Y-83530952D01*
X133992238Y-83340476D01*
X133944619Y-83245238D01*
X133849380Y-83150000D01*
X133706523Y-83102380D01*
X133611285Y-83102380D01*
X133468428Y-83150000D01*
X133420809Y-83197619D01*
X132992238Y-84102380D02*
X132992238Y-83102380D01*
X132563666Y-84102380D02*
X132563666Y-83578571D01*
X132611285Y-83483333D01*
X132706523Y-83435714D01*
X132849380Y-83435714D01*
X132944619Y-83483333D01*
X132992238Y-83530952D01*
X131658904Y-84102380D02*
X131658904Y-83578571D01*
X131706523Y-83483333D01*
X131801761Y-83435714D01*
X131992238Y-83435714D01*
X132087476Y-83483333D01*
X131658904Y-84054761D02*
X131754142Y-84102380D01*
X131992238Y-84102380D01*
X132087476Y-84054761D01*
X132135095Y-83959523D01*
X132135095Y-83864285D01*
X132087476Y-83769047D01*
X131992238Y-83721428D01*
X131754142Y-83721428D01*
X131658904Y-83673809D01*
X130754142Y-83435714D02*
X130754142Y-84245238D01*
X130801761Y-84340476D01*
X130849380Y-84388095D01*
X130944619Y-84435714D01*
X131087476Y-84435714D01*
X131182714Y-84388095D01*
X130754142Y-84054761D02*
X130849380Y-84102380D01*
X131039857Y-84102380D01*
X131135095Y-84054761D01*
X131182714Y-84007142D01*
X131230333Y-83911904D01*
X131230333Y-83626190D01*
X131182714Y-83530952D01*
X131135095Y-83483333D01*
X131039857Y-83435714D01*
X130849380Y-83435714D01*
X130754142Y-83483333D01*
X129563666Y-84054761D02*
X129420809Y-84102380D01*
X129182714Y-84102380D01*
X129087476Y-84054761D01*
X129039857Y-84007142D01*
X128992238Y-83911904D01*
X128992238Y-83816666D01*
X129039857Y-83721428D01*
X129087476Y-83673809D01*
X129182714Y-83626190D01*
X129373190Y-83578571D01*
X129468428Y-83530952D01*
X129516047Y-83483333D01*
X129563666Y-83388095D01*
X129563666Y-83292857D01*
X129516047Y-83197619D01*
X129468428Y-83150000D01*
X129373190Y-83102380D01*
X129135095Y-83102380D01*
X128992238Y-83150000D01*
X128135095Y-84102380D02*
X128135095Y-83578571D01*
X128182714Y-83483333D01*
X128277952Y-83435714D01*
X128468428Y-83435714D01*
X128563666Y-83483333D01*
X128135095Y-84054761D02*
X128230333Y-84102380D01*
X128468428Y-84102380D01*
X128563666Y-84054761D01*
X128611285Y-83959523D01*
X128611285Y-83864285D01*
X128563666Y-83769047D01*
X128468428Y-83721428D01*
X128230333Y-83721428D01*
X128135095Y-83673809D01*
X127658904Y-84102380D02*
X127658904Y-83435714D01*
X127658904Y-83530952D02*
X127611285Y-83483333D01*
X127516047Y-83435714D01*
X127373190Y-83435714D01*
X127277952Y-83483333D01*
X127230333Y-83578571D01*
X127230333Y-84102380D01*
X127230333Y-83578571D02*
X127182714Y-83483333D01*
X127087476Y-83435714D01*
X126944619Y-83435714D01*
X126849380Y-83483333D01*
X126801761Y-83578571D01*
X126801761Y-84102380D01*
X125944619Y-84054761D02*
X126039857Y-84102380D01*
X126230333Y-84102380D01*
X126325571Y-84054761D01*
X126373190Y-83959523D01*
X126373190Y-83578571D01*
X126325571Y-83483333D01*
X126230333Y-83435714D01*
X126039857Y-83435714D01*
X125944619Y-83483333D01*
X125897000Y-83578571D01*
X125897000Y-83673809D01*
X126373190Y-83769047D01*
X125039857Y-84102380D02*
X125039857Y-83578571D01*
X125087476Y-83483333D01*
X125182714Y-83435714D01*
X125373190Y-83435714D01*
X125468428Y-83483333D01*
X125039857Y-84054761D02*
X125135095Y-84102380D01*
X125373190Y-84102380D01*
X125468428Y-84054761D01*
X125516047Y-83959523D01*
X125516047Y-83864285D01*
X125468428Y-83769047D01*
X125373190Y-83721428D01*
X125135095Y-83721428D01*
X125039857Y-83673809D01*
X124135095Y-84054761D02*
X124230333Y-84102380D01*
X124420809Y-84102380D01*
X124516047Y-84054761D01*
X124563666Y-84007142D01*
X124611285Y-83911904D01*
X124611285Y-83626190D01*
X124563666Y-83530952D01*
X124516047Y-83483333D01*
X124420809Y-83435714D01*
X124230333Y-83435714D01*
X124135095Y-83483333D01*
X123706523Y-84102380D02*
X123706523Y-83102380D01*
X123277952Y-84102380D02*
X123277952Y-83578571D01*
X123325571Y-83483333D01*
X123420809Y-83435714D01*
X123563666Y-83435714D01*
X123658904Y-83483333D01*
X123706523Y-83530952D01*
X122754142Y-84054761D02*
X122754142Y-84102380D01*
X122801761Y-84197619D01*
X122849380Y-84245238D01*
X130944619Y-85236190D02*
X130992238Y-85188571D01*
X131087476Y-85140952D01*
X131182714Y-85140952D01*
X131277952Y-85188571D01*
X131325571Y-85236190D01*
X131373190Y-85331428D01*
X131373190Y-85426666D01*
X131325571Y-85521904D01*
X131277952Y-85569523D01*
X131182714Y-85617142D01*
X131087476Y-85617142D01*
X130992238Y-85569523D01*
X130944619Y-85521904D01*
X130944619Y-85140952D02*
X130944619Y-85521904D01*
X130897000Y-85569523D01*
X130849380Y-85569523D01*
X130754142Y-85521904D01*
X130706523Y-85426666D01*
X130706523Y-85188571D01*
X130801761Y-85045714D01*
X130944619Y-84950476D01*
X131135095Y-84902857D01*
X131325571Y-84950476D01*
X131468428Y-85045714D01*
X131563666Y-85188571D01*
X131611285Y-85379047D01*
X131563666Y-85569523D01*
X131468428Y-85712380D01*
X131325571Y-85807619D01*
X131135095Y-85855238D01*
X130944619Y-85807619D01*
X130801761Y-85712380D01*
X130420809Y-85045714D02*
X130039857Y-85045714D01*
X130277952Y-84712380D02*
X130277952Y-85569523D01*
X130230333Y-85664761D01*
X130135095Y-85712380D01*
X130039857Y-85712380D01*
X129325571Y-85664761D02*
X129420809Y-85712380D01*
X129611285Y-85712380D01*
X129706523Y-85664761D01*
X129754142Y-85569523D01*
X129754142Y-85188571D01*
X129706523Y-85093333D01*
X129611285Y-85045714D01*
X129420809Y-85045714D01*
X129325571Y-85093333D01*
X129277952Y-85188571D01*
X129277952Y-85283809D01*
X129754142Y-85379047D01*
X128849380Y-85712380D02*
X128849380Y-84712380D01*
X128754142Y-85331428D02*
X128468428Y-85712380D01*
X128468428Y-85045714D02*
X128849380Y-85426666D01*
X128039857Y-85712380D02*
X128039857Y-84712380D01*
X127944619Y-85331428D02*
X127658904Y-85712380D01*
X127658904Y-85045714D02*
X128039857Y-85426666D01*
X127373190Y-85045714D02*
X126992238Y-85045714D01*
X127230333Y-84712380D02*
X127230333Y-85569523D01*
X127182714Y-85664761D01*
X127087476Y-85712380D01*
X126992238Y-85712380D01*
X126658904Y-85712380D02*
X126658904Y-85045714D01*
X126658904Y-85236190D02*
X126611285Y-85140952D01*
X126563666Y-85093333D01*
X126468428Y-85045714D01*
X126373190Y-85045714D01*
X126039857Y-85712380D02*
X126039857Y-85045714D01*
X126039857Y-84712380D02*
X126087476Y-84760000D01*
X126039857Y-84807619D01*
X125992238Y-84760000D01*
X126039857Y-84712380D01*
X126039857Y-84807619D01*
X125563666Y-85712380D02*
X125563666Y-84712380D01*
X125468428Y-85331428D02*
X125182714Y-85712380D01*
X125182714Y-85045714D02*
X125563666Y-85426666D01*
X135016047Y-81637142D02*
X135063666Y-81684761D01*
X135206523Y-81732380D01*
X135301761Y-81732380D01*
X135444619Y-81684761D01*
X135539857Y-81589523D01*
X135587476Y-81494285D01*
X135635095Y-81303809D01*
X135635095Y-81160952D01*
X135587476Y-80970476D01*
X135539857Y-80875238D01*
X135444619Y-80780000D01*
X135301761Y-80732380D01*
X135206523Y-80732380D01*
X135063666Y-80780000D01*
X135016047Y-80827619D01*
X134587476Y-81732380D02*
X134587476Y-81065714D01*
X134587476Y-80732380D02*
X134635095Y-80780000D01*
X134587476Y-80827619D01*
X134539857Y-80780000D01*
X134587476Y-80732380D01*
X134587476Y-80827619D01*
X134111285Y-81732380D02*
X134111285Y-81065714D01*
X134111285Y-81256190D02*
X134063666Y-81160952D01*
X134016047Y-81113333D01*
X133920809Y-81065714D01*
X133825571Y-81065714D01*
X133063666Y-81684761D02*
X133158904Y-81732380D01*
X133349380Y-81732380D01*
X133444619Y-81684761D01*
X133492238Y-81637142D01*
X133539857Y-81541904D01*
X133539857Y-81256190D01*
X133492238Y-81160952D01*
X133444619Y-81113333D01*
X133349380Y-81065714D01*
X133158904Y-81065714D01*
X133063666Y-81113333D01*
X132206523Y-81065714D02*
X132206523Y-81732380D01*
X132635095Y-81065714D02*
X132635095Y-81589523D01*
X132587476Y-81684761D01*
X132492238Y-81732380D01*
X132349380Y-81732380D01*
X132254142Y-81684761D01*
X132206523Y-81637142D01*
X131730333Y-81732380D02*
X131730333Y-81065714D01*
X131730333Y-80732380D02*
X131777952Y-80780000D01*
X131730333Y-80827619D01*
X131682714Y-80780000D01*
X131730333Y-80732380D01*
X131730333Y-80827619D01*
X131397000Y-81065714D02*
X131016047Y-81065714D01*
X131254142Y-80732380D02*
X131254142Y-81589523D01*
X131206523Y-81684761D01*
X131111285Y-81732380D01*
X131016047Y-81732380D01*
X130682714Y-81732380D02*
X130682714Y-80732380D01*
X130301761Y-80732380D01*
X130206523Y-80780000D01*
X130158904Y-80827619D01*
X130111285Y-80922857D01*
X130111285Y-81065714D01*
X130158904Y-81160952D01*
X130206523Y-81208571D01*
X130301761Y-81256190D01*
X130682714Y-81256190D01*
X129777952Y-81065714D02*
X129539857Y-81732380D01*
X129301761Y-81065714D02*
X129539857Y-81732380D01*
X129635095Y-81970476D01*
X129682714Y-82018095D01*
X129777952Y-82065714D01*
X128920809Y-81732380D02*
X128920809Y-80732380D01*
X128492238Y-81732380D02*
X128492238Y-81208571D01*
X128539857Y-81113333D01*
X128635095Y-81065714D01*
X128777952Y-81065714D01*
X128873190Y-81113333D01*
X128920809Y-81160952D01*
X128158904Y-81065714D02*
X127777952Y-81065714D01*
X128016047Y-80732380D02*
X128016047Y-81589523D01*
X127968428Y-81684761D01*
X127873190Y-81732380D01*
X127777952Y-81732380D01*
X127444619Y-81732380D02*
X127444619Y-80732380D01*
X127016047Y-81732380D02*
X127016047Y-81208571D01*
X127063666Y-81113333D01*
X127158904Y-81065714D01*
X127301761Y-81065714D01*
X127397000Y-81113333D01*
X127444619Y-81160952D01*
X126397000Y-81732380D02*
X126492238Y-81684761D01*
X126539857Y-81637142D01*
X126587476Y-81541904D01*
X126587476Y-81256190D01*
X126539857Y-81160952D01*
X126492238Y-81113333D01*
X126397000Y-81065714D01*
X126254142Y-81065714D01*
X126158904Y-81113333D01*
X126111285Y-81160952D01*
X126063666Y-81256190D01*
X126063666Y-81541904D01*
X126111285Y-81637142D01*
X126158904Y-81684761D01*
X126254142Y-81732380D01*
X126397000Y-81732380D01*
X125635095Y-81065714D02*
X125635095Y-81732380D01*
X125635095Y-81160952D02*
X125587476Y-81113333D01*
X125492238Y-81065714D01*
X125349380Y-81065714D01*
X125254142Y-81113333D01*
X125206523Y-81208571D01*
X125206523Y-81732380D01*
X124301761Y-81065714D02*
X124301761Y-81732380D01*
X124730333Y-81065714D02*
X124730333Y-81589523D01*
X124682714Y-81684761D01*
X124587476Y-81732380D01*
X124444619Y-81732380D01*
X124349380Y-81684761D01*
X124301761Y-81637142D01*
X123825571Y-81732380D02*
X123825571Y-80732380D01*
X123730333Y-81351428D02*
X123444619Y-81732380D01*
X123444619Y-81065714D02*
X123825571Y-81446666D01*
X123016047Y-81732380D02*
X123016047Y-81065714D01*
X123016047Y-80732380D02*
X123063666Y-80780000D01*
X123016047Y-80827619D01*
X122968428Y-80780000D01*
X123016047Y-80732380D01*
X123016047Y-80827619D01*
X122111285Y-81732380D02*
X122111285Y-81208571D01*
X122158904Y-81113333D01*
X122254142Y-81065714D01*
X122444619Y-81065714D01*
X122539857Y-81113333D01*
X122111285Y-81684761D02*
X122206523Y-81732380D01*
X122444619Y-81732380D01*
X122539857Y-81684761D01*
X122587476Y-81589523D01*
X122587476Y-81494285D01*
X122539857Y-81399047D01*
X122444619Y-81351428D01*
X122206523Y-81351428D01*
X122111285Y-81303809D01*
X121635095Y-81732380D02*
X121635095Y-80732380D01*
X121206523Y-81732380D02*
X121206523Y-81208571D01*
X121254142Y-81113333D01*
X121349380Y-81065714D01*
X121492238Y-81065714D01*
X121587476Y-81113333D01*
X121635095Y-81160952D01*
%TO.C,G\u002A\u002A\u002A*%
D11*
X128930400Y-63035180D02*
X129247900Y-63045340D01*
X129458720Y-63060580D01*
X129519680Y-63073280D01*
X129545080Y-63174880D01*
X129595880Y-63418720D01*
X129664460Y-63774320D01*
X129745740Y-64203580D01*
X129758440Y-64274700D01*
X129842260Y-64714120D01*
X129918460Y-65084960D01*
X129979420Y-65354200D01*
X130020060Y-65483740D01*
X130022600Y-65488820D01*
X130129280Y-65547240D01*
X130355340Y-65651380D01*
X130657600Y-65780920D01*
X130990340Y-65913000D01*
X131305300Y-66034920D01*
X131561840Y-66126360D01*
X131706620Y-66167000D01*
X131724400Y-66167000D01*
X131818380Y-66111120D01*
X132029200Y-65971420D01*
X132328920Y-65768220D01*
X132689600Y-65524380D01*
X132715000Y-65506600D01*
X133080760Y-65257680D01*
X133388100Y-65049400D01*
X133614160Y-64902080D01*
X133723380Y-64836040D01*
X133725920Y-64833500D01*
X133799580Y-64861440D01*
X133949440Y-64980820D01*
X134193280Y-65201800D01*
X134543800Y-65544700D01*
X134642860Y-65643760D01*
X134957820Y-65961260D01*
X135219440Y-66235580D01*
X135404860Y-66438780D01*
X135486140Y-66545460D01*
X135486140Y-66553080D01*
X135437880Y-66649600D01*
X135303260Y-66868040D01*
X135105140Y-67170300D01*
X134861300Y-67530980D01*
X134840980Y-67558920D01*
X134594600Y-67922140D01*
X134386320Y-68226940D01*
X134241540Y-68447920D01*
X134175500Y-68549520D01*
X134175500Y-68552060D01*
X134198360Y-68653660D01*
X134279640Y-68879720D01*
X134401560Y-69179440D01*
X134538720Y-69514720D01*
X134680960Y-69834760D01*
X134802880Y-70098920D01*
X134889240Y-70266560D01*
X134909560Y-70297040D01*
X135016240Y-70330060D01*
X135265160Y-70385940D01*
X135620760Y-70459600D01*
X136047480Y-70543420D01*
X136075420Y-70548500D01*
X136502140Y-70629780D01*
X136860280Y-70698360D01*
X137114280Y-70751700D01*
X137223500Y-70779640D01*
X137226040Y-70782180D01*
X137241280Y-70878700D01*
X137256520Y-71127620D01*
X137264140Y-71503540D01*
X137269220Y-71978520D01*
X137269220Y-72527160D01*
X137264140Y-72870060D01*
X137253980Y-73088500D01*
X137238740Y-73210420D01*
X137215880Y-73266300D01*
X137187940Y-73284080D01*
X137071100Y-73306940D01*
X136812020Y-73357740D01*
X136453880Y-73423780D01*
X136057640Y-73497440D01*
X135641080Y-73573640D01*
X135293100Y-73647300D01*
X135051800Y-73705720D01*
X134955280Y-73738740D01*
X134904480Y-73840340D01*
X134800340Y-74074020D01*
X134663180Y-74401680D01*
X134556500Y-74670920D01*
X134203440Y-75549760D01*
X134846060Y-76481940D01*
X135089900Y-76842620D01*
X135290560Y-77149960D01*
X135430260Y-77370940D01*
X135486140Y-77475080D01*
X135425180Y-77561440D01*
X135257540Y-77746860D01*
X135008620Y-78008480D01*
X134701280Y-78320900D01*
X134645400Y-78376780D01*
X134272020Y-78745080D01*
X134007860Y-78996540D01*
X133835140Y-79141320D01*
X133738620Y-79194660D01*
X133720840Y-79194660D01*
X133614160Y-79136240D01*
X133393180Y-78996540D01*
X133088380Y-78793340D01*
X132760720Y-78569820D01*
X132412740Y-78336140D01*
X132125720Y-78143100D01*
X131927600Y-78013560D01*
X131848860Y-77972920D01*
X131757420Y-78008480D01*
X131551680Y-78107540D01*
X131371340Y-78198980D01*
X131102100Y-78331060D01*
X130954780Y-78384400D01*
X130883660Y-78371700D01*
X130878580Y-78366620D01*
X130830320Y-78270100D01*
X130723640Y-78026260D01*
X130568700Y-77663040D01*
X130373120Y-77205840D01*
X130152140Y-76677520D01*
X130025140Y-76370180D01*
X129219960Y-74432160D01*
X129331720Y-74340720D01*
X129476500Y-74228960D01*
X129692400Y-74068940D01*
X129748280Y-74028300D01*
X130213100Y-73583800D01*
X130545840Y-73040240D01*
X130733800Y-72435720D01*
X130759200Y-71803260D01*
X130738880Y-71655940D01*
X130563620Y-71079360D01*
X130253740Y-70540880D01*
X130030220Y-70281800D01*
X129501900Y-69877940D01*
X128897380Y-69641720D01*
X128267460Y-69570600D01*
X127612140Y-69651880D01*
X127030480Y-69900800D01*
X126530100Y-70294500D01*
X126118620Y-70825360D01*
X125877320Y-71417180D01*
X125806200Y-72031860D01*
X125890020Y-72694800D01*
X126146560Y-73289160D01*
X126568200Y-73814940D01*
X126992380Y-74160380D01*
X127190500Y-74307700D01*
X127302260Y-74416920D01*
X127312420Y-74439780D01*
X127279400Y-74546460D01*
X127185420Y-74787760D01*
X127045720Y-75138280D01*
X126867920Y-75570080D01*
X126669800Y-76047600D01*
X126461520Y-76550520D01*
X126253240Y-77043280D01*
X126057660Y-77500480D01*
X125887480Y-77891640D01*
X125757940Y-78186280D01*
X125674120Y-78359000D01*
X125656340Y-78389480D01*
X125544580Y-78369160D01*
X125318520Y-78272640D01*
X125176280Y-78198980D01*
X124929900Y-78069440D01*
X124762260Y-77988160D01*
X124714000Y-77972920D01*
X124630180Y-78018640D01*
X124424440Y-78150720D01*
X124129800Y-78346300D01*
X123774200Y-78587600D01*
X123418600Y-78826360D01*
X123118880Y-79021940D01*
X122908060Y-79156560D01*
X122814080Y-79204820D01*
X122730260Y-79143860D01*
X122544840Y-78978760D01*
X122278140Y-78734920D01*
X121963180Y-78430120D01*
X121897140Y-78366620D01*
X121500900Y-77975460D01*
X121236740Y-77698600D01*
X121094500Y-77528420D01*
X121064020Y-77459840D01*
X121122440Y-77360780D01*
X121267220Y-77144880D01*
X121470420Y-76842620D01*
X121711720Y-76489560D01*
X121953020Y-76133960D01*
X122151140Y-75836780D01*
X122283220Y-75628500D01*
X122331480Y-75534520D01*
X122298460Y-75410060D01*
X122212100Y-75171300D01*
X122087640Y-74856340D01*
X121945400Y-74513440D01*
X121803160Y-74185780D01*
X121676160Y-73911460D01*
X121587260Y-73738740D01*
X121559320Y-73700640D01*
X121445020Y-73675240D01*
X121191020Y-73626980D01*
X120835420Y-73560940D01*
X120482360Y-73494900D01*
X120068340Y-73416160D01*
X119717820Y-73345040D01*
X119471440Y-73291700D01*
X119372380Y-73266300D01*
X119270780Y-73220580D01*
X119293640Y-70779640D01*
X119956580Y-70650100D01*
X120383300Y-70568820D01*
X120827800Y-70485000D01*
X121145300Y-70424040D01*
X121668540Y-70322440D01*
X122019060Y-69522340D01*
X122171460Y-69166740D01*
X122293380Y-68867020D01*
X122361960Y-68671440D01*
X122374660Y-68620640D01*
X122326400Y-68503800D01*
X122184160Y-68259960D01*
X121963180Y-67922140D01*
X121759980Y-67622420D01*
X121516140Y-67266820D01*
X121307860Y-66959480D01*
X121158000Y-66735960D01*
X121094500Y-66634360D01*
X121084340Y-66583560D01*
X121119900Y-66509900D01*
X121216420Y-66387980D01*
X121391680Y-66197480D01*
X121671080Y-65915540D01*
X121904760Y-65679320D01*
X122224800Y-65361820D01*
X122496580Y-65095120D01*
X122697240Y-64907160D01*
X122798840Y-64820800D01*
X122806460Y-64815720D01*
X122890280Y-64866520D01*
X123098560Y-65001140D01*
X123398280Y-65199260D01*
X123761500Y-65445640D01*
X123852940Y-65509140D01*
X124863860Y-66200020D01*
X125686820Y-65867280D01*
X126042420Y-65725040D01*
X126329440Y-65605660D01*
X126504700Y-65526920D01*
X126545340Y-65506600D01*
X126570740Y-65412620D01*
X126624080Y-65171320D01*
X126695200Y-64820800D01*
X126776480Y-64394080D01*
X126791720Y-64315340D01*
X126875540Y-63873380D01*
X126951740Y-63500000D01*
X127010160Y-63230760D01*
X127048260Y-63098680D01*
X127050800Y-63093600D01*
X127152400Y-63070740D01*
X127396240Y-63055500D01*
X127736600Y-63042800D01*
X128132840Y-63035180D01*
X128541780Y-63032640D01*
X128930400Y-63035180D01*
%TD*%
M02*
