%TF.GenerationSoftware,KiCad,Pcbnew,(6.0.7)*%
%TF.CreationDate,2022-08-28T16:25:01-04:00*%
%TF.ProjectId,CircuitPythonukiah,43697263-7569-4745-9079-74686f6e756b,rev?*%
%TF.SameCoordinates,Original*%
%TF.FileFunction,Legend,Bot*%
%TF.FilePolarity,Positive*%
%FSLAX46Y46*%
G04 Gerber Fmt 4.6, Leading zero omitted, Abs format (unit mm)*
G04 Created by KiCad (PCBNEW (6.0.7)) date 2022-08-28 16:25:01*
%MOMM*%
%LPD*%
G01*
G04 APERTURE LIST*
%ADD10C,0.150000*%
%ADD11C,0.002540*%
%ADD12C,0.127000*%
G04 APERTURE END LIST*
D10*
X133420809Y-87436142D02*
X133468428Y-87483761D01*
X133611285Y-87531380D01*
X133706523Y-87531380D01*
X133849380Y-87483761D01*
X133944619Y-87388523D01*
X133992238Y-87293285D01*
X134039857Y-87102809D01*
X134039857Y-86959952D01*
X133992238Y-86769476D01*
X133944619Y-86674238D01*
X133849380Y-86579000D01*
X133706523Y-86531380D01*
X133611285Y-86531380D01*
X133468428Y-86579000D01*
X133420809Y-86626619D01*
X132992238Y-87531380D02*
X132992238Y-86531380D01*
X132563666Y-87531380D02*
X132563666Y-87007571D01*
X132611285Y-86912333D01*
X132706523Y-86864714D01*
X132849380Y-86864714D01*
X132944619Y-86912333D01*
X132992238Y-86959952D01*
X131658904Y-87531380D02*
X131658904Y-87007571D01*
X131706523Y-86912333D01*
X131801761Y-86864714D01*
X131992238Y-86864714D01*
X132087476Y-86912333D01*
X131658904Y-87483761D02*
X131754142Y-87531380D01*
X131992238Y-87531380D01*
X132087476Y-87483761D01*
X132135095Y-87388523D01*
X132135095Y-87293285D01*
X132087476Y-87198047D01*
X131992238Y-87150428D01*
X131754142Y-87150428D01*
X131658904Y-87102809D01*
X130754142Y-86864714D02*
X130754142Y-87674238D01*
X130801761Y-87769476D01*
X130849380Y-87817095D01*
X130944619Y-87864714D01*
X131087476Y-87864714D01*
X131182714Y-87817095D01*
X130754142Y-87483761D02*
X130849380Y-87531380D01*
X131039857Y-87531380D01*
X131135095Y-87483761D01*
X131182714Y-87436142D01*
X131230333Y-87340904D01*
X131230333Y-87055190D01*
X131182714Y-86959952D01*
X131135095Y-86912333D01*
X131039857Y-86864714D01*
X130849380Y-86864714D01*
X130754142Y-86912333D01*
X129563666Y-87483761D02*
X129420809Y-87531380D01*
X129182714Y-87531380D01*
X129087476Y-87483761D01*
X129039857Y-87436142D01*
X128992238Y-87340904D01*
X128992238Y-87245666D01*
X129039857Y-87150428D01*
X129087476Y-87102809D01*
X129182714Y-87055190D01*
X129373190Y-87007571D01*
X129468428Y-86959952D01*
X129516047Y-86912333D01*
X129563666Y-86817095D01*
X129563666Y-86721857D01*
X129516047Y-86626619D01*
X129468428Y-86579000D01*
X129373190Y-86531380D01*
X129135095Y-86531380D01*
X128992238Y-86579000D01*
X128135095Y-87531380D02*
X128135095Y-87007571D01*
X128182714Y-86912333D01*
X128277952Y-86864714D01*
X128468428Y-86864714D01*
X128563666Y-86912333D01*
X128135095Y-87483761D02*
X128230333Y-87531380D01*
X128468428Y-87531380D01*
X128563666Y-87483761D01*
X128611285Y-87388523D01*
X128611285Y-87293285D01*
X128563666Y-87198047D01*
X128468428Y-87150428D01*
X128230333Y-87150428D01*
X128135095Y-87102809D01*
X127658904Y-87531380D02*
X127658904Y-86864714D01*
X127658904Y-86959952D02*
X127611285Y-86912333D01*
X127516047Y-86864714D01*
X127373190Y-86864714D01*
X127277952Y-86912333D01*
X127230333Y-87007571D01*
X127230333Y-87531380D01*
X127230333Y-87007571D02*
X127182714Y-86912333D01*
X127087476Y-86864714D01*
X126944619Y-86864714D01*
X126849380Y-86912333D01*
X126801761Y-87007571D01*
X126801761Y-87531380D01*
X125944619Y-87483761D02*
X126039857Y-87531380D01*
X126230333Y-87531380D01*
X126325571Y-87483761D01*
X126373190Y-87388523D01*
X126373190Y-87007571D01*
X126325571Y-86912333D01*
X126230333Y-86864714D01*
X126039857Y-86864714D01*
X125944619Y-86912333D01*
X125897000Y-87007571D01*
X125897000Y-87102809D01*
X126373190Y-87198047D01*
X125039857Y-87531380D02*
X125039857Y-87007571D01*
X125087476Y-86912333D01*
X125182714Y-86864714D01*
X125373190Y-86864714D01*
X125468428Y-86912333D01*
X125039857Y-87483761D02*
X125135095Y-87531380D01*
X125373190Y-87531380D01*
X125468428Y-87483761D01*
X125516047Y-87388523D01*
X125516047Y-87293285D01*
X125468428Y-87198047D01*
X125373190Y-87150428D01*
X125135095Y-87150428D01*
X125039857Y-87102809D01*
X124135095Y-87483761D02*
X124230333Y-87531380D01*
X124420809Y-87531380D01*
X124516047Y-87483761D01*
X124563666Y-87436142D01*
X124611285Y-87340904D01*
X124611285Y-87055190D01*
X124563666Y-86959952D01*
X124516047Y-86912333D01*
X124420809Y-86864714D01*
X124230333Y-86864714D01*
X124135095Y-86912333D01*
X123706523Y-87531380D02*
X123706523Y-86531380D01*
X123277952Y-87531380D02*
X123277952Y-87007571D01*
X123325571Y-86912333D01*
X123420809Y-86864714D01*
X123563666Y-86864714D01*
X123658904Y-86912333D01*
X123706523Y-86959952D01*
X122754142Y-87483761D02*
X122754142Y-87531380D01*
X122801761Y-87626619D01*
X122849380Y-87674238D01*
X130944619Y-88665190D02*
X130992238Y-88617571D01*
X131087476Y-88569952D01*
X131182714Y-88569952D01*
X131277952Y-88617571D01*
X131325571Y-88665190D01*
X131373190Y-88760428D01*
X131373190Y-88855666D01*
X131325571Y-88950904D01*
X131277952Y-88998523D01*
X131182714Y-89046142D01*
X131087476Y-89046142D01*
X130992238Y-88998523D01*
X130944619Y-88950904D01*
X130944619Y-88569952D02*
X130944619Y-88950904D01*
X130897000Y-88998523D01*
X130849380Y-88998523D01*
X130754142Y-88950904D01*
X130706523Y-88855666D01*
X130706523Y-88617571D01*
X130801761Y-88474714D01*
X130944619Y-88379476D01*
X131135095Y-88331857D01*
X131325571Y-88379476D01*
X131468428Y-88474714D01*
X131563666Y-88617571D01*
X131611285Y-88808047D01*
X131563666Y-88998523D01*
X131468428Y-89141380D01*
X131325571Y-89236619D01*
X131135095Y-89284238D01*
X130944619Y-89236619D01*
X130801761Y-89141380D01*
X130420809Y-88474714D02*
X130039857Y-88474714D01*
X130277952Y-88141380D02*
X130277952Y-88998523D01*
X130230333Y-89093761D01*
X130135095Y-89141380D01*
X130039857Y-89141380D01*
X129325571Y-89093761D02*
X129420809Y-89141380D01*
X129611285Y-89141380D01*
X129706523Y-89093761D01*
X129754142Y-88998523D01*
X129754142Y-88617571D01*
X129706523Y-88522333D01*
X129611285Y-88474714D01*
X129420809Y-88474714D01*
X129325571Y-88522333D01*
X129277952Y-88617571D01*
X129277952Y-88712809D01*
X129754142Y-88808047D01*
X128849380Y-89141380D02*
X128849380Y-88141380D01*
X128754142Y-88760428D02*
X128468428Y-89141380D01*
X128468428Y-88474714D02*
X128849380Y-88855666D01*
X128039857Y-89141380D02*
X128039857Y-88141380D01*
X127944619Y-88760428D02*
X127658904Y-89141380D01*
X127658904Y-88474714D02*
X128039857Y-88855666D01*
X127373190Y-88474714D02*
X126992238Y-88474714D01*
X127230333Y-88141380D02*
X127230333Y-88998523D01*
X127182714Y-89093761D01*
X127087476Y-89141380D01*
X126992238Y-89141380D01*
X126658904Y-89141380D02*
X126658904Y-88474714D01*
X126658904Y-88665190D02*
X126611285Y-88569952D01*
X126563666Y-88522333D01*
X126468428Y-88474714D01*
X126373190Y-88474714D01*
X126039857Y-89141380D02*
X126039857Y-88474714D01*
X126039857Y-88141380D02*
X126087476Y-88189000D01*
X126039857Y-88236619D01*
X125992238Y-88189000D01*
X126039857Y-88141380D01*
X126039857Y-88236619D01*
X125563666Y-89141380D02*
X125563666Y-88141380D01*
X125468428Y-88760428D02*
X125182714Y-89141380D01*
X125182714Y-88474714D02*
X125563666Y-88855666D01*
X135016047Y-82399142D02*
X135063666Y-82446761D01*
X135206523Y-82494380D01*
X135301761Y-82494380D01*
X135444619Y-82446761D01*
X135539857Y-82351523D01*
X135587476Y-82256285D01*
X135635095Y-82065809D01*
X135635095Y-81922952D01*
X135587476Y-81732476D01*
X135539857Y-81637238D01*
X135444619Y-81542000D01*
X135301761Y-81494380D01*
X135206523Y-81494380D01*
X135063666Y-81542000D01*
X135016047Y-81589619D01*
X134587476Y-82494380D02*
X134587476Y-81827714D01*
X134587476Y-81494380D02*
X134635095Y-81542000D01*
X134587476Y-81589619D01*
X134539857Y-81542000D01*
X134587476Y-81494380D01*
X134587476Y-81589619D01*
X134111285Y-82494380D02*
X134111285Y-81827714D01*
X134111285Y-82018190D02*
X134063666Y-81922952D01*
X134016047Y-81875333D01*
X133920809Y-81827714D01*
X133825571Y-81827714D01*
X133063666Y-82446761D02*
X133158904Y-82494380D01*
X133349380Y-82494380D01*
X133444619Y-82446761D01*
X133492238Y-82399142D01*
X133539857Y-82303904D01*
X133539857Y-82018190D01*
X133492238Y-81922952D01*
X133444619Y-81875333D01*
X133349380Y-81827714D01*
X133158904Y-81827714D01*
X133063666Y-81875333D01*
X132206523Y-81827714D02*
X132206523Y-82494380D01*
X132635095Y-81827714D02*
X132635095Y-82351523D01*
X132587476Y-82446761D01*
X132492238Y-82494380D01*
X132349380Y-82494380D01*
X132254142Y-82446761D01*
X132206523Y-82399142D01*
X131730333Y-82494380D02*
X131730333Y-81827714D01*
X131730333Y-81494380D02*
X131777952Y-81542000D01*
X131730333Y-81589619D01*
X131682714Y-81542000D01*
X131730333Y-81494380D01*
X131730333Y-81589619D01*
X131397000Y-81827714D02*
X131016047Y-81827714D01*
X131254142Y-81494380D02*
X131254142Y-82351523D01*
X131206523Y-82446761D01*
X131111285Y-82494380D01*
X131016047Y-82494380D01*
X130682714Y-82494380D02*
X130682714Y-81494380D01*
X130301761Y-81494380D01*
X130206523Y-81542000D01*
X130158904Y-81589619D01*
X130111285Y-81684857D01*
X130111285Y-81827714D01*
X130158904Y-81922952D01*
X130206523Y-81970571D01*
X130301761Y-82018190D01*
X130682714Y-82018190D01*
X129777952Y-81827714D02*
X129539857Y-82494380D01*
X129301761Y-81827714D02*
X129539857Y-82494380D01*
X129635095Y-82732476D01*
X129682714Y-82780095D01*
X129777952Y-82827714D01*
X128920809Y-82494380D02*
X128920809Y-81494380D01*
X128492238Y-82494380D02*
X128492238Y-81970571D01*
X128539857Y-81875333D01*
X128635095Y-81827714D01*
X128777952Y-81827714D01*
X128873190Y-81875333D01*
X128920809Y-81922952D01*
X128158904Y-81827714D02*
X127777952Y-81827714D01*
X128016047Y-81494380D02*
X128016047Y-82351523D01*
X127968428Y-82446761D01*
X127873190Y-82494380D01*
X127777952Y-82494380D01*
X127444619Y-82494380D02*
X127444619Y-81494380D01*
X127016047Y-82494380D02*
X127016047Y-81970571D01*
X127063666Y-81875333D01*
X127158904Y-81827714D01*
X127301761Y-81827714D01*
X127397000Y-81875333D01*
X127444619Y-81922952D01*
X126397000Y-82494380D02*
X126492238Y-82446761D01*
X126539857Y-82399142D01*
X126587476Y-82303904D01*
X126587476Y-82018190D01*
X126539857Y-81922952D01*
X126492238Y-81875333D01*
X126397000Y-81827714D01*
X126254142Y-81827714D01*
X126158904Y-81875333D01*
X126111285Y-81922952D01*
X126063666Y-82018190D01*
X126063666Y-82303904D01*
X126111285Y-82399142D01*
X126158904Y-82446761D01*
X126254142Y-82494380D01*
X126397000Y-82494380D01*
X125635095Y-81827714D02*
X125635095Y-82494380D01*
X125635095Y-81922952D02*
X125587476Y-81875333D01*
X125492238Y-81827714D01*
X125349380Y-81827714D01*
X125254142Y-81875333D01*
X125206523Y-81970571D01*
X125206523Y-82494380D01*
X124301761Y-81827714D02*
X124301761Y-82494380D01*
X124730333Y-81827714D02*
X124730333Y-82351523D01*
X124682714Y-82446761D01*
X124587476Y-82494380D01*
X124444619Y-82494380D01*
X124349380Y-82446761D01*
X124301761Y-82399142D01*
X123825571Y-82494380D02*
X123825571Y-81494380D01*
X123730333Y-82113428D02*
X123444619Y-82494380D01*
X123444619Y-81827714D02*
X123825571Y-82208666D01*
X123016047Y-82494380D02*
X123016047Y-81827714D01*
X123016047Y-81494380D02*
X123063666Y-81542000D01*
X123016047Y-81589619D01*
X122968428Y-81542000D01*
X123016047Y-81494380D01*
X123016047Y-81589619D01*
X122111285Y-82494380D02*
X122111285Y-81970571D01*
X122158904Y-81875333D01*
X122254142Y-81827714D01*
X122444619Y-81827714D01*
X122539857Y-81875333D01*
X122111285Y-82446761D02*
X122206523Y-82494380D01*
X122444619Y-82494380D01*
X122539857Y-82446761D01*
X122587476Y-82351523D01*
X122587476Y-82256285D01*
X122539857Y-82161047D01*
X122444619Y-82113428D01*
X122206523Y-82113428D01*
X122111285Y-82065809D01*
X121635095Y-82494380D02*
X121635095Y-81494380D01*
X121206523Y-82494380D02*
X121206523Y-81970571D01*
X121254142Y-81875333D01*
X121349380Y-81827714D01*
X121492238Y-81827714D01*
X121587476Y-81875333D01*
X121635095Y-81922952D01*
%TO.C,G\u002A\u002A\u002A*%
D11*
X128930400Y-63670180D02*
X129247900Y-63680340D01*
X129458720Y-63695580D01*
X129519680Y-63708280D01*
X129545080Y-63809880D01*
X129595880Y-64053720D01*
X129664460Y-64409320D01*
X129745740Y-64838580D01*
X129758440Y-64909700D01*
X129842260Y-65349120D01*
X129918460Y-65719960D01*
X129979420Y-65989200D01*
X130020060Y-66118740D01*
X130022600Y-66123820D01*
X130129280Y-66182240D01*
X130355340Y-66286380D01*
X130657600Y-66415920D01*
X130990340Y-66548000D01*
X131305300Y-66669920D01*
X131561840Y-66761360D01*
X131706620Y-66802000D01*
X131724400Y-66802000D01*
X131818380Y-66746120D01*
X132029200Y-66606420D01*
X132328920Y-66403220D01*
X132689600Y-66159380D01*
X132715000Y-66141600D01*
X133080760Y-65892680D01*
X133388100Y-65684400D01*
X133614160Y-65537080D01*
X133723380Y-65471040D01*
X133725920Y-65468500D01*
X133799580Y-65496440D01*
X133949440Y-65615820D01*
X134193280Y-65836800D01*
X134543800Y-66179700D01*
X134642860Y-66278760D01*
X134957820Y-66596260D01*
X135219440Y-66870580D01*
X135404860Y-67073780D01*
X135486140Y-67180460D01*
X135486140Y-67188080D01*
X135437880Y-67284600D01*
X135303260Y-67503040D01*
X135105140Y-67805300D01*
X134861300Y-68165980D01*
X134840980Y-68193920D01*
X134594600Y-68557140D01*
X134386320Y-68861940D01*
X134241540Y-69082920D01*
X134175500Y-69184520D01*
X134175500Y-69187060D01*
X134198360Y-69288660D01*
X134279640Y-69514720D01*
X134401560Y-69814440D01*
X134538720Y-70149720D01*
X134680960Y-70469760D01*
X134802880Y-70733920D01*
X134889240Y-70901560D01*
X134909560Y-70932040D01*
X135016240Y-70965060D01*
X135265160Y-71020940D01*
X135620760Y-71094600D01*
X136047480Y-71178420D01*
X136075420Y-71183500D01*
X136502140Y-71264780D01*
X136860280Y-71333360D01*
X137114280Y-71386700D01*
X137223500Y-71414640D01*
X137226040Y-71417180D01*
X137241280Y-71513700D01*
X137256520Y-71762620D01*
X137264140Y-72138540D01*
X137269220Y-72613520D01*
X137269220Y-73162160D01*
X137264140Y-73505060D01*
X137253980Y-73723500D01*
X137238740Y-73845420D01*
X137215880Y-73901300D01*
X137187940Y-73919080D01*
X137071100Y-73941940D01*
X136812020Y-73992740D01*
X136453880Y-74058780D01*
X136057640Y-74132440D01*
X135641080Y-74208640D01*
X135293100Y-74282300D01*
X135051800Y-74340720D01*
X134955280Y-74373740D01*
X134904480Y-74475340D01*
X134800340Y-74709020D01*
X134663180Y-75036680D01*
X134556500Y-75305920D01*
X134203440Y-76184760D01*
X134846060Y-77116940D01*
X135089900Y-77477620D01*
X135290560Y-77784960D01*
X135430260Y-78005940D01*
X135486140Y-78110080D01*
X135425180Y-78196440D01*
X135257540Y-78381860D01*
X135008620Y-78643480D01*
X134701280Y-78955900D01*
X134645400Y-79011780D01*
X134272020Y-79380080D01*
X134007860Y-79631540D01*
X133835140Y-79776320D01*
X133738620Y-79829660D01*
X133720840Y-79829660D01*
X133614160Y-79771240D01*
X133393180Y-79631540D01*
X133088380Y-79428340D01*
X132760720Y-79204820D01*
X132412740Y-78971140D01*
X132125720Y-78778100D01*
X131927600Y-78648560D01*
X131848860Y-78607920D01*
X131757420Y-78643480D01*
X131551680Y-78742540D01*
X131371340Y-78833980D01*
X131102100Y-78966060D01*
X130954780Y-79019400D01*
X130883660Y-79006700D01*
X130878580Y-79001620D01*
X130830320Y-78905100D01*
X130723640Y-78661260D01*
X130568700Y-78298040D01*
X130373120Y-77840840D01*
X130152140Y-77312520D01*
X130025140Y-77005180D01*
X129219960Y-75067160D01*
X129331720Y-74975720D01*
X129476500Y-74863960D01*
X129692400Y-74703940D01*
X129748280Y-74663300D01*
X130213100Y-74218800D01*
X130545840Y-73675240D01*
X130733800Y-73070720D01*
X130759200Y-72438260D01*
X130738880Y-72290940D01*
X130563620Y-71714360D01*
X130253740Y-71175880D01*
X130030220Y-70916800D01*
X129501900Y-70512940D01*
X128897380Y-70276720D01*
X128267460Y-70205600D01*
X127612140Y-70286880D01*
X127030480Y-70535800D01*
X126530100Y-70929500D01*
X126118620Y-71460360D01*
X125877320Y-72052180D01*
X125806200Y-72666860D01*
X125890020Y-73329800D01*
X126146560Y-73924160D01*
X126568200Y-74449940D01*
X126992380Y-74795380D01*
X127190500Y-74942700D01*
X127302260Y-75051920D01*
X127312420Y-75074780D01*
X127279400Y-75181460D01*
X127185420Y-75422760D01*
X127045720Y-75773280D01*
X126867920Y-76205080D01*
X126669800Y-76682600D01*
X126461520Y-77185520D01*
X126253240Y-77678280D01*
X126057660Y-78135480D01*
X125887480Y-78526640D01*
X125757940Y-78821280D01*
X125674120Y-78994000D01*
X125656340Y-79024480D01*
X125544580Y-79004160D01*
X125318520Y-78907640D01*
X125176280Y-78833980D01*
X124929900Y-78704440D01*
X124762260Y-78623160D01*
X124714000Y-78607920D01*
X124630180Y-78653640D01*
X124424440Y-78785720D01*
X124129800Y-78981300D01*
X123774200Y-79222600D01*
X123418600Y-79461360D01*
X123118880Y-79656940D01*
X122908060Y-79791560D01*
X122814080Y-79839820D01*
X122730260Y-79778860D01*
X122544840Y-79613760D01*
X122278140Y-79369920D01*
X121963180Y-79065120D01*
X121897140Y-79001620D01*
X121500900Y-78610460D01*
X121236740Y-78333600D01*
X121094500Y-78163420D01*
X121064020Y-78094840D01*
X121122440Y-77995780D01*
X121267220Y-77779880D01*
X121470420Y-77477620D01*
X121711720Y-77124560D01*
X121953020Y-76768960D01*
X122151140Y-76471780D01*
X122283220Y-76263500D01*
X122331480Y-76169520D01*
X122298460Y-76045060D01*
X122212100Y-75806300D01*
X122087640Y-75491340D01*
X121945400Y-75148440D01*
X121803160Y-74820780D01*
X121676160Y-74546460D01*
X121587260Y-74373740D01*
X121559320Y-74335640D01*
X121445020Y-74310240D01*
X121191020Y-74261980D01*
X120835420Y-74195940D01*
X120482360Y-74129900D01*
X120068340Y-74051160D01*
X119717820Y-73980040D01*
X119471440Y-73926700D01*
X119372380Y-73901300D01*
X119270780Y-73855580D01*
X119293640Y-71414640D01*
X119956580Y-71285100D01*
X120383300Y-71203820D01*
X120827800Y-71120000D01*
X121145300Y-71059040D01*
X121668540Y-70957440D01*
X122019060Y-70157340D01*
X122171460Y-69801740D01*
X122293380Y-69502020D01*
X122361960Y-69306440D01*
X122374660Y-69255640D01*
X122326400Y-69138800D01*
X122184160Y-68894960D01*
X121963180Y-68557140D01*
X121759980Y-68257420D01*
X121516140Y-67901820D01*
X121307860Y-67594480D01*
X121158000Y-67370960D01*
X121094500Y-67269360D01*
X121084340Y-67218560D01*
X121119900Y-67144900D01*
X121216420Y-67022980D01*
X121391680Y-66832480D01*
X121671080Y-66550540D01*
X121904760Y-66314320D01*
X122224800Y-65996820D01*
X122496580Y-65730120D01*
X122697240Y-65542160D01*
X122798840Y-65455800D01*
X122806460Y-65450720D01*
X122890280Y-65501520D01*
X123098560Y-65636140D01*
X123398280Y-65834260D01*
X123761500Y-66080640D01*
X123852940Y-66144140D01*
X124863860Y-66835020D01*
X125686820Y-66502280D01*
X126042420Y-66360040D01*
X126329440Y-66240660D01*
X126504700Y-66161920D01*
X126545340Y-66141600D01*
X126570740Y-66047620D01*
X126624080Y-65806320D01*
X126695200Y-65455800D01*
X126776480Y-65029080D01*
X126791720Y-64950340D01*
X126875540Y-64508380D01*
X126951740Y-64135000D01*
X127010160Y-63865760D01*
X127048260Y-63733680D01*
X127050800Y-63728600D01*
X127152400Y-63705740D01*
X127396240Y-63690500D01*
X127736600Y-63677800D01*
X128132840Y-63670180D01*
X128541780Y-63667640D01*
X128930400Y-63670180D01*
D12*
%TO.C,J1*%
X132640000Y-187994000D02*
X131790000Y-187994000D01*
X132640000Y-190654000D02*
X132640000Y-190964000D01*
X123900000Y-190964000D02*
X123900000Y-190654000D01*
X124750000Y-187994000D02*
X123900000Y-187994000D01*
X123900000Y-187994000D02*
X123900000Y-188314000D01*
X132640000Y-190964000D02*
X123900000Y-190964000D01*
X132640000Y-188314000D02*
X132640000Y-187994000D01*
%TD*%
M02*
