%TF.GenerationSoftware,KiCad,Pcbnew,(6.0.6)*%
%TF.CreationDate,2022-07-10T00:11:49-04:00*%
%TF.ProjectId,CircuitPythonukiah,43697263-7569-4745-9079-74686f6e756b,rev?*%
%TF.SameCoordinates,Original*%
%TF.FileFunction,Copper,L2,Bot*%
%TF.FilePolarity,Positive*%
%FSLAX46Y46*%
G04 Gerber Fmt 4.6, Leading zero omitted, Abs format (unit mm)*
G04 Created by KiCad (PCBNEW (6.0.6)) date 2022-07-10 00:11:49*
%MOMM*%
%LPD*%
G01*
G04 APERTURE LIST*
%TA.AperFunction,ComponentPad*%
%ADD10C,2.625000*%
%TD*%
%TA.AperFunction,ComponentPad*%
%ADD11R,2.625000X2.625000*%
%TD*%
%TA.AperFunction,ComponentPad*%
%ADD12R,1.800000X1.800000*%
%TD*%
%TA.AperFunction,ComponentPad*%
%ADD13C,1.800000*%
%TD*%
%TA.AperFunction,ComponentPad*%
%ADD14C,1.600000*%
%TD*%
%TA.AperFunction,ComponentPad*%
%ADD15O,1.600000X1.600000*%
%TD*%
%TA.AperFunction,ComponentPad*%
%ADD16C,1.524000*%
%TD*%
%TA.AperFunction,ComponentPad*%
%ADD17R,0.840000X0.840000*%
%TD*%
%TA.AperFunction,ComponentPad*%
%ADD18C,0.840000*%
%TD*%
%TA.AperFunction,ComponentPad*%
%ADD19C,1.850000*%
%TD*%
%TA.AperFunction,ViaPad*%
%ADD20C,0.800000*%
%TD*%
%TA.AperFunction,Conductor*%
%ADD21C,0.250000*%
%TD*%
G04 APERTURE END LIST*
D10*
%TO.P,SW1,2*%
%TO.N,3V*%
X127180000Y-88900000D03*
D11*
%TO.P,SW1,1*%
%TO.N,MUTE_BTN*%
X127180000Y-93500000D03*
%TD*%
D12*
%TO.P,D8,1,K*%
%TO.N,GND*%
X222144258Y-42439258D03*
D13*
%TO.P,D8,2,A*%
%TO.N,Net-(D8-Pad2)*%
X219604258Y-42439258D03*
%TD*%
D14*
%TO.P,R4,1*%
%TO.N,Net-(D4-Pad2)*%
X109220000Y-61595000D03*
D15*
%TO.P,R4,2*%
%TO.N,LED4*%
X116840000Y-61595000D03*
%TD*%
D14*
%TO.P,R9,1*%
%TO.N,Net-(D9-Pad2)*%
X128270000Y-49530000D03*
D15*
%TO.P,R9,2*%
%TO.N,SHAMASH*%
X128270000Y-57150000D03*
%TD*%
D12*
%TO.P,D9,1,K*%
%TO.N,GND*%
X129439258Y-42479258D03*
D13*
%TO.P,D9,2,A*%
%TO.N,Net-(D9-Pad2)*%
X126899258Y-42479258D03*
%TD*%
D14*
%TO.P,R3,1*%
%TO.N,Net-(D3-Pad2)*%
X109220000Y-82550000D03*
D15*
%TO.P,R3,2*%
%TO.N,LED3*%
X116840000Y-82550000D03*
%TD*%
D14*
%TO.P,R7,1*%
%TO.N,Net-(D7-Pad2)*%
X147320000Y-102870000D03*
D15*
%TO.P,R7,2*%
%TO.N,LED7*%
X139700000Y-102870000D03*
%TD*%
D14*
%TO.P,R6,1*%
%TO.N,Net-(D6-Pad2)*%
X147320000Y-82444258D03*
D15*
%TO.P,R6,2*%
%TO.N,LED6*%
X139700000Y-82444258D03*
%TD*%
D12*
%TO.P,D7,1,K*%
%TO.N,GND*%
X201824258Y-42439258D03*
D13*
%TO.P,D7,2,A*%
%TO.N,Net-(D7-Pad2)*%
X199284258Y-42439258D03*
%TD*%
D12*
%TO.P,D4,1,K*%
%TO.N,GND*%
X97684258Y-42439258D03*
D13*
%TO.P,D4,2,A*%
%TO.N,Net-(D4-Pad2)*%
X95144258Y-42439258D03*
%TD*%
D14*
%TO.P,R5,1*%
%TO.N,Net-(D5-Pad2)*%
X147320000Y-61595000D03*
D15*
%TO.P,R5,2*%
%TO.N,LED5*%
X139700000Y-61595000D03*
%TD*%
D12*
%TO.P,D3,1,K*%
%TO.N,GND*%
X77364258Y-42439258D03*
D13*
%TO.P,D3,2,A*%
%TO.N,Net-(D3-Pad2)*%
X74824258Y-42439258D03*
%TD*%
D14*
%TO.P,R8,1*%
%TO.N,Net-(D8-Pad2)*%
X147320000Y-123084258D03*
D15*
%TO.P,R8,2*%
%TO.N,LED8*%
X139700000Y-123084258D03*
%TD*%
D14*
%TO.P,R1,1*%
%TO.N,Net-(D1-Pad2)*%
X109220000Y-123190000D03*
D15*
%TO.P,R1,2*%
%TO.N,LED1*%
X116840000Y-123190000D03*
%TD*%
D12*
%TO.P,D5,1,K*%
%TO.N,GND*%
X161184258Y-42439258D03*
D13*
%TO.P,D5,2,A*%
%TO.N,Net-(D5-Pad2)*%
X158644258Y-42439258D03*
%TD*%
D12*
%TO.P,D6,1,K*%
%TO.N,GND*%
X181504258Y-42439258D03*
D13*
%TO.P,D6,2,A*%
%TO.N,Net-(D6-Pad2)*%
X178964258Y-42439258D03*
%TD*%
D16*
%TO.P,U1,1,5V*%
%TO.N,5V*%
X120650000Y-154940000D03*
%TO.P,U1,2,GND*%
%TO.N,GND*%
X120650000Y-152400000D03*
%TO.P,U1,3,3V*%
%TO.N,3V*%
X120650000Y-149860000D03*
%TO.P,U1,4,MO*%
%TO.N,LED4*%
X120650000Y-147320000D03*
%TO.P,U1,5,MI*%
%TO.N,LED3*%
X120650000Y-144780000D03*
%TO.P,U1,6,SCK*%
%TO.N,LED2*%
X120650000Y-142240000D03*
%TO.P,U1,7,RX*%
%TO.N,LED1*%
X120650000Y-139700000D03*
%TO.P,U1,8,A0*%
%TO.N,SPKR*%
X135890000Y-154940000D03*
%TO.P,U1,9,A1*%
%TO.N,MUTE_BTN*%
X135890000Y-152400000D03*
%TO.P,U1,10,A2*%
%TO.N,SHAMASH*%
X135890000Y-149860000D03*
%TO.P,U1,11,A3*%
%TO.N,LED5*%
X135890000Y-147320000D03*
%TO.P,U1,12,SDA*%
%TO.N,LED6*%
X135890000Y-144780000D03*
%TO.P,U1,13,SCL*%
%TO.N,LED7*%
X135890000Y-142240000D03*
%TO.P,U1,14,TX*%
%TO.N,LED8*%
X135890000Y-139700000D03*
%TD*%
D17*
%TO.P,J1,1,VBUS*%
%TO.N,5V*%
X127000000Y-189835000D03*
D18*
%TO.P,J1,2,D-*%
%TO.N,unconnected-(J1-Pad2)*%
X127650000Y-190835000D03*
%TO.P,J1,3,D+*%
%TO.N,unconnected-(J1-Pad3)*%
X128300000Y-189835000D03*
%TO.P,J1,4,ID*%
%TO.N,unconnected-(J1-Pad4)*%
X128950000Y-190835000D03*
%TO.P,J1,5,GND*%
%TO.N,GND*%
X129600000Y-189835000D03*
D19*
%TO.P,J1,6,Shield*%
X131875000Y-190055000D03*
X124725000Y-190055000D03*
%TD*%
D14*
%TO.P,R2,1*%
%TO.N,Net-(D2-Pad2)*%
X109220000Y-102764258D03*
D15*
%TO.P,R2,2*%
%TO.N,LED2*%
X116840000Y-102764258D03*
%TD*%
D12*
%TO.P,D2,1,K*%
%TO.N,GND*%
X57049258Y-42479258D03*
D13*
%TO.P,D2,2,A*%
%TO.N,Net-(D2-Pad2)*%
X54509258Y-42479258D03*
%TD*%
D16*
%TO.P,LS1,2,2*%
%TO.N,GND*%
X130704258Y-109114258D03*
%TO.P,LS1,1,1*%
%TO.N,SPKR*%
X125624258Y-109114258D03*
%TD*%
D12*
%TO.P,D1,1,K*%
%TO.N,GND*%
X36724258Y-42479258D03*
D13*
%TO.P,D1,2,A*%
%TO.N,Net-(D1-Pad2)*%
X34184258Y-42479258D03*
%TD*%
D20*
%TO.N,GND*%
X133350000Y-116840000D03*
X123190000Y-116840000D03*
%TO.N,SHAMASH*%
X132080000Y-146050000D03*
%TO.N,MUTE_BTN*%
X128270000Y-144780000D03*
%TO.N,SPKR*%
X127000000Y-147320000D03*
%TD*%
D21*
%TO.N,MUTE_BTN*%
X128270000Y-144780000D02*
X128270000Y-118110000D01*
X125730000Y-115570000D02*
X125730000Y-111760000D01*
X128270000Y-118110000D02*
X125730000Y-115570000D01*
X125730000Y-111760000D02*
X123190000Y-109220000D01*
X123190000Y-109220000D02*
X123190000Y-107950000D01*
X123190000Y-107950000D02*
X127180000Y-103960000D01*
X127180000Y-103960000D02*
X127180000Y-93500000D01*
%TO.N,3V*%
X120650000Y-149860000D02*
X125730000Y-149860000D01*
X130810000Y-116840000D02*
X128270000Y-114300000D01*
X130810000Y-104140000D02*
X130810000Y-92530000D01*
X125730000Y-149860000D02*
X130810000Y-144780000D01*
X128270000Y-106680000D02*
X130810000Y-104140000D01*
X130810000Y-144780000D02*
X130810000Y-116840000D01*
X128270000Y-114300000D02*
X128270000Y-106680000D01*
X130810000Y-92530000D02*
X127180000Y-88900000D01*
%TO.N,GND*%
X57049258Y-54509258D02*
X57150000Y-54610000D01*
X209550000Y-77470000D02*
X218440000Y-68580000D01*
X168910000Y-114300000D02*
X180340000Y-114300000D01*
X163830000Y-71120000D02*
X170180000Y-71120000D01*
X131875000Y-190055000D02*
X131875000Y-188360000D01*
X139065000Y-100330000D02*
X137160000Y-100330000D01*
X44450000Y-71120000D02*
X36724258Y-63394258D01*
X179070000Y-50800000D02*
X181610000Y-48260000D01*
X44450000Y-83820000D02*
X44450000Y-71120000D01*
X57049258Y-42479258D02*
X57049258Y-54509258D01*
X180340000Y-114300000D02*
X209550000Y-85090000D01*
X158750000Y-100330000D02*
X165100000Y-93980000D01*
X137160000Y-65405000D02*
X137160000Y-64770000D01*
X129439258Y-45619258D02*
X129439258Y-42479258D01*
X135890000Y-179070000D02*
X131875000Y-183085000D01*
X129540000Y-185420000D02*
X127000000Y-185420000D01*
X175260000Y-93980000D02*
X191770000Y-77470000D01*
X129600000Y-185480000D02*
X129540000Y-185420000D01*
X133350000Y-157480000D02*
X135890000Y-160020000D01*
X77364258Y-42439258D02*
X77364258Y-54504258D01*
X97684258Y-49424258D02*
X97684258Y-42439258D01*
X218440000Y-68580000D02*
X218440000Y-46143516D01*
X137160000Y-123190000D02*
X137160000Y-124460000D01*
X131875000Y-185625000D02*
X131670000Y-185420000D01*
X81280000Y-93980000D02*
X91440000Y-93980000D01*
X130175000Y-46355000D02*
X129439258Y-45619258D01*
X91440000Y-93980000D02*
X97790000Y-100330000D01*
X201930000Y-48260000D02*
X201824258Y-48154258D01*
X87630000Y-114300000D02*
X74930000Y-114300000D01*
X102870000Y-80010000D02*
X119380000Y-80010000D01*
X137160000Y-64770000D02*
X138430000Y-63500000D01*
X119380000Y-100965000D02*
X119380000Y-100330000D01*
X131875000Y-183085000D02*
X131875000Y-185625000D01*
X120650000Y-152400000D02*
X133350000Y-152400000D01*
X123190000Y-116840000D02*
X119380000Y-116840000D01*
X133350000Y-152400000D02*
X133350000Y-157480000D01*
X137160000Y-116840000D02*
X133350000Y-116840000D01*
X199390000Y-59690000D02*
X199390000Y-50800000D01*
X218440000Y-46143516D02*
X222144258Y-42439258D01*
X94615000Y-121285000D02*
X87630000Y-114300000D01*
X191770000Y-67310000D02*
X199390000Y-59690000D01*
X117157500Y-63500000D02*
X114935000Y-63500000D01*
X57150000Y-62230000D02*
X68580000Y-73660000D01*
X74930000Y-114300000D02*
X44450000Y-83820000D01*
X36724258Y-63394258D02*
X36724258Y-42479258D01*
X133350000Y-128270000D02*
X133350000Y-152400000D01*
X145415000Y-59690000D02*
X150815991Y-59690000D01*
X179070000Y-57150000D02*
X179070000Y-50800000D01*
X172720000Y-68580000D02*
X172720000Y-63500000D01*
X138430000Y-120650000D02*
X137160000Y-120650000D01*
X68580000Y-73660000D02*
X68580000Y-81280000D01*
X127000000Y-185420000D02*
X124725000Y-187695000D01*
X119380000Y-100330000D02*
X97790000Y-100330000D01*
X162560000Y-120650000D02*
X168910000Y-114300000D01*
X137160000Y-124460000D02*
X133350000Y-128270000D01*
X111125000Y-59690000D02*
X107950000Y-59690000D01*
X137160000Y-65405000D02*
X133350000Y-65405000D01*
X119380000Y-100330000D02*
X119380000Y-82550000D01*
X201824258Y-48154258D02*
X201824258Y-42439258D01*
X209550000Y-85090000D02*
X209550000Y-77470000D01*
X181504258Y-48154258D02*
X181504258Y-42439258D01*
X138430000Y-63500000D02*
X141605000Y-63500000D01*
X165100000Y-93980000D02*
X175260000Y-93980000D01*
X154940000Y-80010000D02*
X163830000Y-71120000D01*
X124725000Y-187695000D02*
X124725000Y-190055000D01*
X77364258Y-54504258D02*
X102870000Y-80010000D01*
X170180000Y-71120000D02*
X172720000Y-68580000D01*
X118745000Y-121285000D02*
X119380000Y-120650000D01*
X68580000Y-81280000D02*
X81280000Y-93980000D01*
X119380000Y-80010000D02*
X119380000Y-65722500D01*
X119380000Y-65722500D02*
X117157500Y-63500000D01*
X137160000Y-102870000D02*
X137160000Y-82550000D01*
X138430000Y-120650000D02*
X162560000Y-120650000D01*
X191770000Y-77470000D02*
X191770000Y-67310000D01*
X130704258Y-109114258D02*
X137054258Y-109114258D01*
X57150000Y-54610000D02*
X57150000Y-62230000D01*
X139065000Y-100330000D02*
X158750000Y-100330000D01*
X199390000Y-50800000D02*
X201930000Y-48260000D01*
X137160000Y-116840000D02*
X137160000Y-102870000D01*
X161184258Y-49321733D02*
X161184258Y-42439258D01*
X135890000Y-160020000D02*
X135890000Y-179070000D01*
X119380000Y-80645000D02*
X119380000Y-80010000D01*
X150815991Y-59690000D02*
X161184258Y-49321733D01*
X130175000Y-62230000D02*
X130175000Y-46355000D01*
X141605000Y-63500000D02*
X145415000Y-59690000D01*
X119380000Y-116840000D02*
X119380000Y-120650000D01*
X172720000Y-63500000D02*
X179070000Y-57150000D01*
X131670000Y-185420000D02*
X129540000Y-185420000D01*
X119380000Y-116840000D02*
X119380000Y-100965000D01*
X119380000Y-82550000D02*
X119380000Y-80645000D01*
X107950000Y-59690000D02*
X97684258Y-49424258D01*
X139700000Y-80010000D02*
X137160000Y-80010000D01*
X181610000Y-48260000D02*
X181504258Y-48154258D01*
X131875000Y-185625000D02*
X131875000Y-188360000D01*
X129600000Y-189835000D02*
X129600000Y-185480000D01*
X137160000Y-82550000D02*
X137160000Y-65405000D01*
X118745000Y-121285000D02*
X94615000Y-121285000D01*
X114935000Y-63500000D02*
X111125000Y-59690000D01*
X137160000Y-116840000D02*
X137160000Y-123190000D01*
X133350000Y-65405000D02*
X130175000Y-62230000D01*
X139700000Y-80010000D02*
X154940000Y-80010000D01*
%TO.N,SHAMASH*%
X132080000Y-146050000D02*
X132080000Y-115570000D01*
X129540000Y-107950000D02*
X135890000Y-101600000D01*
X128270000Y-63500000D02*
X128270000Y-57150000D01*
X132080000Y-115570000D02*
X129540000Y-113030000D01*
X135890000Y-71120000D02*
X128270000Y-63500000D01*
X135890000Y-101600000D02*
X135890000Y-71120000D01*
X129540000Y-113030000D02*
X129540000Y-107950000D01*
%TO.N,SPKR*%
X129540000Y-144780000D02*
X129540000Y-116840000D01*
X127000000Y-110490000D02*
X125624258Y-109114258D01*
X127000000Y-114300000D02*
X127000000Y-110490000D01*
X127000000Y-147320000D02*
X129540000Y-144780000D01*
X129540000Y-116840000D02*
X127000000Y-114300000D01*
%TD*%
M02*
