%TF.GenerationSoftware,KiCad,Pcbnew,(6.0.6)*%
%TF.CreationDate,2022-07-10T00:11:49-04:00*%
%TF.ProjectId,CircuitPythonukiah,43697263-7569-4745-9079-74686f6e756b,rev?*%
%TF.SameCoordinates,Original*%
%TF.FileFunction,Soldermask,Top*%
%TF.FilePolarity,Negative*%
%FSLAX46Y46*%
G04 Gerber Fmt 4.6, Leading zero omitted, Abs format (unit mm)*
G04 Created by KiCad (PCBNEW (6.0.6)) date 2022-07-10 00:11:49*
%MOMM*%
%LPD*%
G01*
G04 APERTURE LIST*
%ADD10C,2.625000*%
%ADD11R,2.625000X2.625000*%
%ADD12R,1.800000X1.800000*%
%ADD13C,1.800000*%
%ADD14C,1.600000*%
%ADD15O,1.600000X1.600000*%
%ADD16C,6.400000*%
%ADD17C,1.524000*%
%ADD18R,0.840000X0.840000*%
%ADD19C,0.840000*%
%ADD20C,1.850000*%
G04 APERTURE END LIST*
D10*
%TO.C,SW1*%
X127180000Y-88900000D03*
D11*
X127180000Y-93500000D03*
%TD*%
D12*
%TO.C,D8*%
X222144258Y-42439258D03*
D13*
X219604258Y-42439258D03*
%TD*%
D14*
%TO.C,R4*%
X109220000Y-61595000D03*
D15*
X116840000Y-61595000D03*
%TD*%
D14*
%TO.C,R9*%
X128270000Y-49530000D03*
D15*
X128270000Y-57150000D03*
%TD*%
D12*
%TO.C,D9*%
X129439258Y-42479258D03*
D13*
X126899258Y-42479258D03*
%TD*%
D14*
%TO.C,R3*%
X109220000Y-82550000D03*
D15*
X116840000Y-82550000D03*
%TD*%
D14*
%TO.C,R7*%
X147320000Y-102870000D03*
D15*
X139700000Y-102870000D03*
%TD*%
D14*
%TO.C,R6*%
X147320000Y-82444258D03*
D15*
X139700000Y-82444258D03*
%TD*%
D12*
%TO.C,D7*%
X201824258Y-42439258D03*
D13*
X199284258Y-42439258D03*
%TD*%
D12*
%TO.C,D4*%
X97684258Y-42439258D03*
D13*
X95144258Y-42439258D03*
%TD*%
D14*
%TO.C,R5*%
X147320000Y-61595000D03*
D15*
X139700000Y-61595000D03*
%TD*%
D16*
%TO.C,REF\u002A\u002A*%
X128270000Y-175260000D03*
%TD*%
D12*
%TO.C,D3*%
X77364258Y-42439258D03*
D13*
X74824258Y-42439258D03*
%TD*%
D14*
%TO.C,R8*%
X147320000Y-123084258D03*
D15*
X139700000Y-123084258D03*
%TD*%
D14*
%TO.C,R1*%
X109220000Y-123190000D03*
D15*
X116840000Y-123190000D03*
%TD*%
D12*
%TO.C,D5*%
X161184258Y-42439258D03*
D13*
X158644258Y-42439258D03*
%TD*%
D12*
%TO.C,D6*%
X181504258Y-42439258D03*
D13*
X178964258Y-42439258D03*
%TD*%
D17*
%TO.C,U1*%
X120650000Y-154940000D03*
X120650000Y-152400000D03*
X120650000Y-149860000D03*
X120650000Y-147320000D03*
X120650000Y-144780000D03*
X120650000Y-142240000D03*
X120650000Y-139700000D03*
X135890000Y-154940000D03*
X135890000Y-152400000D03*
X135890000Y-149860000D03*
X135890000Y-147320000D03*
X135890000Y-144780000D03*
X135890000Y-142240000D03*
X135890000Y-139700000D03*
%TD*%
D18*
%TO.C,J1*%
X127000000Y-189835000D03*
D19*
X127650000Y-190835000D03*
X128300000Y-189835000D03*
X128950000Y-190835000D03*
X129600000Y-189835000D03*
D20*
X131875000Y-190055000D03*
X124725000Y-190055000D03*
%TD*%
D14*
%TO.C,R2*%
X109220000Y-102764258D03*
D15*
X116840000Y-102764258D03*
%TD*%
D12*
%TO.C,D2*%
X57049258Y-42479258D03*
D13*
X54509258Y-42479258D03*
%TD*%
D17*
%TO.C,LS1*%
X130704258Y-109114258D03*
X125624258Y-109114258D03*
%TD*%
D12*
%TO.C,D1*%
X36724258Y-42479258D03*
D13*
X34184258Y-42479258D03*
%TD*%
M02*
