%TF.GenerationSoftware,KiCad,Pcbnew,(6.0.7)*%
%TF.CreationDate,2022-09-16T16:34:08-04:00*%
%TF.ProjectId,CircuitPythonukiah,43697263-7569-4745-9079-74686f6e756b,rev?*%
%TF.SameCoordinates,Original*%
%TF.FileFunction,Copper,L1,Top*%
%TF.FilePolarity,Positive*%
%FSLAX46Y46*%
G04 Gerber Fmt 4.6, Leading zero omitted, Abs format (unit mm)*
G04 Created by KiCad (PCBNEW (6.0.7)) date 2022-09-16 16:34:08*
%MOMM*%
%LPD*%
G01*
G04 APERTURE LIST*
%TA.AperFunction,ComponentPad*%
%ADD10R,1.800000X1.800000*%
%TD*%
%TA.AperFunction,ComponentPad*%
%ADD11C,1.800000*%
%TD*%
%TA.AperFunction,ComponentPad*%
%ADD12C,1.600000*%
%TD*%
%TA.AperFunction,ComponentPad*%
%ADD13O,1.600000X1.600000*%
%TD*%
%TA.AperFunction,ComponentPad*%
%ADD14C,1.524000*%
%TD*%
%TA.AperFunction,ComponentPad*%
%ADD15C,1.676400*%
%TD*%
%TA.AperFunction,ComponentPad*%
%ADD16O,0.700000X1.400000*%
%TD*%
%TA.AperFunction,ViaPad*%
%ADD17C,0.800000*%
%TD*%
%TA.AperFunction,Conductor*%
%ADD18C,0.250000*%
%TD*%
G04 APERTURE END LIST*
D10*
%TO.P,D8,1,K*%
%TO.N,GND*%
X222144258Y-42439258D03*
D11*
%TO.P,D8,2,A*%
%TO.N,Net-(D8-Pad2)*%
X219604258Y-42439258D03*
%TD*%
D12*
%TO.P,R4,1*%
%TO.N,Net-(D4-Pad2)*%
X109220000Y-61595000D03*
D13*
%TO.P,R4,2*%
%TO.N,LED4*%
X116840000Y-61595000D03*
%TD*%
D12*
%TO.P,R9,1*%
%TO.N,Net-(D9-Pad2)*%
X128270000Y-49530000D03*
D13*
%TO.P,R9,2*%
%TO.N,SHAMASH*%
X128270000Y-57150000D03*
%TD*%
D10*
%TO.P,D9,1,K*%
%TO.N,GND*%
X129439258Y-42479258D03*
D11*
%TO.P,D9,2,A*%
%TO.N,Net-(D9-Pad2)*%
X126899258Y-42479258D03*
%TD*%
D12*
%TO.P,R3,1*%
%TO.N,Net-(D3-Pad2)*%
X109220000Y-82550000D03*
D13*
%TO.P,R3,2*%
%TO.N,LED3*%
X116840000Y-82550000D03*
%TD*%
D12*
%TO.P,R7,1*%
%TO.N,Net-(D7-Pad2)*%
X147320000Y-102870000D03*
D13*
%TO.P,R7,2*%
%TO.N,LED7*%
X139700000Y-102870000D03*
%TD*%
D12*
%TO.P,R6,1*%
%TO.N,Net-(D6-Pad2)*%
X147320000Y-82444258D03*
D13*
%TO.P,R6,2*%
%TO.N,LED6*%
X139700000Y-82444258D03*
%TD*%
D10*
%TO.P,D7,1,K*%
%TO.N,GND*%
X201824258Y-42439258D03*
D11*
%TO.P,D7,2,A*%
%TO.N,Net-(D7-Pad2)*%
X199284258Y-42439258D03*
%TD*%
D10*
%TO.P,D4,1,K*%
%TO.N,GND*%
X97684258Y-42439258D03*
D11*
%TO.P,D4,2,A*%
%TO.N,Net-(D4-Pad2)*%
X95144258Y-42439258D03*
%TD*%
D12*
%TO.P,R5,1*%
%TO.N,Net-(D5-Pad2)*%
X147320000Y-61595000D03*
D13*
%TO.P,R5,2*%
%TO.N,LED5*%
X139700000Y-61595000D03*
%TD*%
D10*
%TO.P,D3,1,K*%
%TO.N,GND*%
X77364258Y-42439258D03*
D11*
%TO.P,D3,2,A*%
%TO.N,Net-(D3-Pad2)*%
X74824258Y-42439258D03*
%TD*%
D12*
%TO.P,R8,1*%
%TO.N,Net-(D8-Pad2)*%
X147320000Y-123084258D03*
D13*
%TO.P,R8,2*%
%TO.N,LED8*%
X139700000Y-123084258D03*
%TD*%
D12*
%TO.P,R1,1*%
%TO.N,Net-(D1-Pad2)*%
X109220000Y-123190000D03*
D13*
%TO.P,R1,2*%
%TO.N,LED1*%
X116840000Y-123190000D03*
%TD*%
D10*
%TO.P,D5,1,K*%
%TO.N,GND*%
X161184258Y-42439258D03*
D11*
%TO.P,D5,2,A*%
%TO.N,Net-(D5-Pad2)*%
X158644258Y-42439258D03*
%TD*%
D10*
%TO.P,D6,1,K*%
%TO.N,GND*%
X181504258Y-42439258D03*
D11*
%TO.P,D6,2,A*%
%TO.N,Net-(D6-Pad2)*%
X178964258Y-42439258D03*
%TD*%
D14*
%TO.P,U1,1,5V*%
%TO.N,5V*%
X135890000Y-138430000D03*
%TO.P,U1,2,GND*%
%TO.N,GND*%
X135890000Y-140970000D03*
%TO.P,U1,3,3V*%
%TO.N,3V*%
X135890000Y-143510000D03*
%TO.P,U1,4,MO*%
%TO.N,LED8*%
X135890000Y-146050000D03*
%TO.P,U1,5,MI*%
%TO.N,LED7*%
X135890000Y-148590000D03*
%TO.P,U1,6,SCK*%
%TO.N,LED6*%
X135890000Y-151130000D03*
%TO.P,U1,7,RX*%
%TO.N,LED5*%
X135890000Y-153670000D03*
%TO.P,U1,8,A0*%
%TO.N,MUTE_BTN*%
X120650000Y-138430000D03*
%TO.P,U1,9,A1*%
%TO.N,SPKR*%
X120650000Y-140970000D03*
%TO.P,U1,10,A2*%
%TO.N,SHAMASH*%
X120650000Y-143510000D03*
%TO.P,U1,11,A3*%
%TO.N,LED1*%
X120650000Y-146050000D03*
%TO.P,U1,12,SDA*%
%TO.N,LED2*%
X120650000Y-148590000D03*
%TO.P,U1,13,SCL*%
%TO.N,LED3*%
X120650000Y-151130000D03*
%TO.P,U1,14,TX*%
%TO.N,LED4*%
X120650000Y-153670000D03*
%TD*%
D15*
%TO.P,SW1,1,A*%
%TO.N,MUTE_BTN*%
X128270000Y-95758000D03*
%TO.P,SW1,2,B*%
%TO.N,GND*%
X128270000Y-98298000D03*
%TO.P,SW1,3,C*%
%TO.N,unconnected-(SW1-Pad3)*%
X128270000Y-100838000D03*
%TD*%
D12*
%TO.P,R2,1*%
%TO.N,Net-(D2-Pad2)*%
X109220000Y-102764258D03*
D13*
%TO.P,R2,2*%
%TO.N,LED2*%
X116840000Y-102764258D03*
%TD*%
D10*
%TO.P,D2,1,K*%
%TO.N,GND*%
X57049258Y-42479258D03*
D11*
%TO.P,D2,2,A*%
%TO.N,Net-(D2-Pad2)*%
X54509258Y-42479258D03*
%TD*%
D14*
%TO.P,LS1,1,1*%
%TO.N,SPKR*%
X125730000Y-116840000D03*
%TO.P,LS1,2,2*%
%TO.N,GND*%
X130810000Y-116840000D03*
%TD*%
D10*
%TO.P,D1,1,K*%
%TO.N,GND*%
X36724258Y-42479258D03*
D11*
%TO.P,D1,2,A*%
%TO.N,Net-(D1-Pad2)*%
X34184258Y-42479258D03*
%TD*%
D16*
%TO.P,J1,S1,SHIELD*%
%TO.N,GND*%
X132540000Y-189484000D03*
%TO.P,J1,S2,SHIELD*%
X124000000Y-189484000D03*
%TD*%
D17*
%TO.N,GND*%
X128016000Y-140970000D03*
X128016000Y-128778000D03*
%TO.N,5V*%
X129794000Y-184150000D03*
X126746000Y-184150000D03*
X128778000Y-138430000D03*
%TD*%
D18*
%TO.N,GND*%
X128270000Y-98298000D02*
X133350000Y-103378000D01*
X133350000Y-103378000D02*
X133350000Y-114300000D01*
X133350000Y-114300000D02*
X130810000Y-116840000D01*
X128016000Y-140970000D02*
X128016000Y-128778000D01*
X128016000Y-128778000D02*
X128016000Y-119634000D01*
X124000000Y-189484000D02*
X132540000Y-189484000D01*
X128016000Y-119634000D02*
X130810000Y-116840000D01*
%TO.N,5V*%
X120650000Y-178054000D02*
X126746000Y-184150000D01*
X120650000Y-156718000D02*
X128016000Y-149352000D01*
X120650000Y-160020000D02*
X120650000Y-178054000D01*
X128016000Y-149352000D02*
X128778000Y-148590000D01*
X120650000Y-160020000D02*
X120650000Y-156718000D01*
X128778000Y-138684000D02*
X128778000Y-138430000D01*
X126746000Y-184150000D02*
X129794000Y-184150000D01*
X128778000Y-148590000D02*
X128778000Y-138684000D01*
%TO.N,LED1*%
X116840000Y-123190000D02*
X122555000Y-128905000D01*
X122555000Y-144145000D02*
X120650000Y-146050000D01*
X122555000Y-128905000D02*
X122555000Y-144145000D01*
%TO.N,LED2*%
X119380000Y-105410000D02*
X119380000Y-121920000D01*
X116840000Y-102870000D02*
X119380000Y-105410000D01*
X119380000Y-121920000D02*
X123825000Y-126365000D01*
X123825000Y-145415000D02*
X120650000Y-148590000D01*
X116840000Y-102764258D02*
X116840000Y-102870000D01*
X123825000Y-126365000D02*
X123825000Y-145415000D01*
%TO.N,LED3*%
X116734258Y-82444258D02*
X120650000Y-86360000D01*
X120650000Y-120650000D02*
X125095000Y-125095000D01*
X120650000Y-86360000D02*
X120650000Y-120650000D01*
X125095000Y-146685000D02*
X120650000Y-151130000D01*
X125095000Y-125095000D02*
X125095000Y-146685000D01*
%TO.N,LED4*%
X126365000Y-123825000D02*
X126365000Y-147955000D01*
X119380000Y-61595000D02*
X121920000Y-64135000D01*
X117475000Y-61595000D02*
X119380000Y-61595000D01*
X121920000Y-119380000D02*
X126365000Y-123825000D01*
X126365000Y-147955000D02*
X120650000Y-153670000D01*
X121920000Y-64135000D02*
X121920000Y-119380000D01*
%TO.N,LED5*%
X134620000Y-64770000D02*
X134620000Y-119634000D01*
X139700000Y-61595000D02*
X137795000Y-61595000D01*
X129540000Y-147320000D02*
X135890000Y-153670000D01*
X134620000Y-119634000D02*
X129540000Y-124714000D01*
X137795000Y-61595000D02*
X134620000Y-64770000D01*
X129540000Y-124714000D02*
X129540000Y-147320000D01*
%TO.N,LED6*%
X135890000Y-86360000D02*
X135890000Y-121920000D01*
X132334000Y-147574000D02*
X135890000Y-151130000D01*
X135890000Y-121920000D02*
X132334000Y-125476000D01*
X139805742Y-82444258D02*
X135890000Y-86360000D01*
X132334000Y-125476000D02*
X132334000Y-147574000D01*
%TO.N,LED8*%
X139594258Y-123084258D02*
X138535742Y-123084258D01*
X138535742Y-123084258D02*
X134112000Y-127508000D01*
X134112000Y-144272000D02*
X135890000Y-146050000D01*
X134112000Y-127508000D02*
X134112000Y-144272000D01*
%TO.N,LED7*%
X133096000Y-145796000D02*
X135890000Y-148590000D01*
X139700000Y-102870000D02*
X137160000Y-105410000D01*
X137160000Y-105410000D02*
X137160000Y-123190000D01*
X137160000Y-123190000D02*
X133096000Y-127254000D01*
X133096000Y-127254000D02*
X133096000Y-145796000D01*
%TO.N,Net-(D1-Pad2)*%
X35560000Y-62230000D02*
X35560000Y-49530000D01*
X87630000Y-114300000D02*
X74930000Y-114300000D01*
X74930000Y-114300000D02*
X44450000Y-83820000D01*
X44450000Y-83820000D02*
X44450000Y-71120000D01*
X35560000Y-49530000D02*
X34184258Y-48154258D01*
X44450000Y-71120000D02*
X35560000Y-62230000D01*
X109220000Y-123190000D02*
X96520000Y-123190000D01*
X96520000Y-123190000D02*
X87630000Y-114300000D01*
X34184258Y-48154258D02*
X34184258Y-42479258D01*
%TO.N,Net-(D2-Pad2)*%
X57150000Y-54610000D02*
X57150000Y-62230000D01*
X54509258Y-51969258D02*
X57150000Y-54610000D01*
X68580000Y-81280000D02*
X81280000Y-93980000D01*
X57150000Y-62230000D02*
X68580000Y-73660000D01*
X91440000Y-93980000D02*
X100224258Y-102764258D01*
X100224258Y-102764258D02*
X109220000Y-102764258D01*
X68580000Y-73660000D02*
X68580000Y-81280000D01*
X54509258Y-42479258D02*
X54509258Y-51969258D01*
X81280000Y-93980000D02*
X91440000Y-93980000D01*
%TO.N,Net-(D3-Pad2)*%
X81280000Y-63500000D02*
X81280000Y-58420000D01*
X106680000Y-82550000D02*
X99060000Y-74930000D01*
X106680000Y-82550000D02*
X109220000Y-82550000D01*
X74824258Y-51964258D02*
X74824258Y-42439258D01*
X99060000Y-74930000D02*
X92710000Y-74930000D01*
X81280000Y-58420000D02*
X74824258Y-51964258D01*
X92710000Y-74930000D02*
X81280000Y-63500000D01*
%TO.N,Net-(D4-Pad2)*%
X107315000Y-59055000D02*
X107315000Y-59690000D01*
X107315000Y-59055000D02*
X95144258Y-46884258D01*
X107315000Y-59690000D02*
X109220000Y-61595000D01*
X95144258Y-46884258D02*
X95144258Y-42439258D01*
%TO.N,Net-(D5-Pad2)*%
X149225000Y-61595000D02*
X147320000Y-61595000D01*
X149225000Y-61595000D02*
X158644258Y-52175742D01*
X158644258Y-52175742D02*
X158644258Y-42439258D01*
%TO.N,Net-(D6-Pad2)*%
X170180000Y-71120000D02*
X172720000Y-68580000D01*
X172720000Y-63500000D02*
X179070000Y-57150000D01*
X172720000Y-68580000D02*
X172720000Y-63500000D01*
X178964258Y-57044258D02*
X178964258Y-42439258D01*
X152294258Y-82444258D02*
X152505742Y-82444258D01*
X147320000Y-82444258D02*
X152294258Y-82444258D01*
X152505742Y-82444258D02*
X163830000Y-71120000D01*
X179070000Y-57150000D02*
X178964258Y-57044258D01*
X163830000Y-71120000D02*
X170180000Y-71120000D01*
%TO.N,Net-(D7-Pad2)*%
X199390000Y-59690000D02*
X191770000Y-67310000D01*
X165100000Y-93980000D02*
X156315742Y-102764258D01*
X199284258Y-59584258D02*
X199390000Y-59690000D01*
X175260000Y-93980000D02*
X165100000Y-93980000D01*
X199284258Y-42439258D02*
X199284258Y-59584258D01*
X191770000Y-67310000D02*
X191770000Y-77470000D01*
X191770000Y-77470000D02*
X175260000Y-93980000D01*
X156315742Y-102764258D02*
X147320000Y-102764258D01*
%TO.N,Net-(D8-Pad2)*%
X209550000Y-77470000D02*
X209550000Y-85090000D01*
X147320000Y-123084258D02*
X160125742Y-123084258D01*
X219710000Y-46990000D02*
X218440000Y-48260000D01*
X168910000Y-114300000D02*
X160125742Y-123084258D01*
X219604258Y-42439258D02*
X219604258Y-46884258D01*
X218440000Y-68580000D02*
X209550000Y-77470000D01*
X219604258Y-46884258D02*
X219710000Y-46990000D01*
X180340000Y-114300000D02*
X168910000Y-114300000D01*
X209550000Y-85090000D02*
X180340000Y-114300000D01*
X218440000Y-48260000D02*
X218440000Y-68580000D01*
%TO.N,Net-(D9-Pad2)*%
X128270000Y-48260000D02*
X128270000Y-49530000D01*
X126899258Y-46889258D02*
X128270000Y-48260000D01*
X126899258Y-42479258D02*
X126899258Y-46889258D01*
%TD*%
M02*
