%TF.GenerationSoftware,KiCad,Pcbnew,(6.0.7)*%
%TF.CreationDate,2022-09-16T16:34:08-04:00*%
%TF.ProjectId,CircuitPythonukiah,43697263-7569-4745-9079-74686f6e756b,rev?*%
%TF.SameCoordinates,Original*%
%TF.FileFunction,Legend,Top*%
%TF.FilePolarity,Positive*%
%FSLAX46Y46*%
G04 Gerber Fmt 4.6, Leading zero omitted, Abs format (unit mm)*
G04 Created by KiCad (PCBNEW (6.0.7)) date 2022-09-16 16:34:08*
%MOMM*%
%LPD*%
G01*
G04 APERTURE LIST*
%ADD10C,0.150000*%
%ADD11C,0.120000*%
%ADD12C,0.200000*%
%ADD13C,0.127000*%
G04 APERTURE END LIST*
D10*
X126174761Y-91590761D02*
X126317619Y-91638380D01*
X126555714Y-91638380D01*
X126650952Y-91590761D01*
X126698571Y-91543142D01*
X126746190Y-91447904D01*
X126746190Y-91352666D01*
X126698571Y-91257428D01*
X126650952Y-91209809D01*
X126555714Y-91162190D01*
X126365238Y-91114571D01*
X126270000Y-91066952D01*
X126222380Y-91019333D01*
X126174761Y-90924095D01*
X126174761Y-90828857D01*
X126222380Y-90733619D01*
X126270000Y-90686000D01*
X126365238Y-90638380D01*
X126603333Y-90638380D01*
X126746190Y-90686000D01*
X127317619Y-91638380D02*
X127222380Y-91590761D01*
X127174761Y-91543142D01*
X127127142Y-91447904D01*
X127127142Y-91162190D01*
X127174761Y-91066952D01*
X127222380Y-91019333D01*
X127317619Y-90971714D01*
X127460476Y-90971714D01*
X127555714Y-91019333D01*
X127603333Y-91066952D01*
X127650952Y-91162190D01*
X127650952Y-91447904D01*
X127603333Y-91543142D01*
X127555714Y-91590761D01*
X127460476Y-91638380D01*
X127317619Y-91638380D01*
X128508095Y-90971714D02*
X128508095Y-91638380D01*
X128079523Y-90971714D02*
X128079523Y-91495523D01*
X128127142Y-91590761D01*
X128222380Y-91638380D01*
X128365238Y-91638380D01*
X128460476Y-91590761D01*
X128508095Y-91543142D01*
X128984285Y-90971714D02*
X128984285Y-91638380D01*
X128984285Y-91066952D02*
X129031904Y-91019333D01*
X129127142Y-90971714D01*
X129270000Y-90971714D01*
X129365238Y-91019333D01*
X129412857Y-91114571D01*
X129412857Y-91638380D01*
X130317619Y-91638380D02*
X130317619Y-90638380D01*
X130317619Y-91590761D02*
X130222380Y-91638380D01*
X130031904Y-91638380D01*
X129936666Y-91590761D01*
X129889047Y-91543142D01*
X129841428Y-91447904D01*
X129841428Y-91162190D01*
X129889047Y-91066952D01*
X129936666Y-91019333D01*
X130031904Y-90971714D01*
X130222380Y-90971714D01*
X130317619Y-91019333D01*
X126317619Y-105862380D02*
X126317619Y-104862380D01*
X126650952Y-105576666D01*
X126984285Y-104862380D01*
X126984285Y-105862380D01*
X127889047Y-105195714D02*
X127889047Y-105862380D01*
X127460476Y-105195714D02*
X127460476Y-105719523D01*
X127508095Y-105814761D01*
X127603333Y-105862380D01*
X127746190Y-105862380D01*
X127841428Y-105814761D01*
X127889047Y-105767142D01*
X128222380Y-105195714D02*
X128603333Y-105195714D01*
X128365238Y-104862380D02*
X128365238Y-105719523D01*
X128412857Y-105814761D01*
X128508095Y-105862380D01*
X128603333Y-105862380D01*
X129317619Y-105814761D02*
X129222380Y-105862380D01*
X129031904Y-105862380D01*
X128936666Y-105814761D01*
X128889047Y-105719523D01*
X128889047Y-105338571D01*
X128936666Y-105243333D01*
X129031904Y-105195714D01*
X129222380Y-105195714D01*
X129317619Y-105243333D01*
X129365238Y-105338571D01*
X129365238Y-105433809D01*
X128889047Y-105529047D01*
X130222380Y-105862380D02*
X130222380Y-104862380D01*
X130222380Y-105814761D02*
X130127142Y-105862380D01*
X129936666Y-105862380D01*
X129841428Y-105814761D01*
X129793809Y-105767142D01*
X129746190Y-105671904D01*
X129746190Y-105386190D01*
X129793809Y-105290952D01*
X129841428Y-105243333D01*
X129936666Y-105195714D01*
X130127142Y-105195714D01*
X130222380Y-105243333D01*
D11*
%TO.C,D8*%
X223434258Y-36149258D02*
X223434258Y-29989258D01*
X219604258Y-36149258D02*
X219604258Y-36149258D01*
X217914258Y-35029258D02*
X218314258Y-35029258D01*
X218314258Y-36149258D02*
X218314258Y-29989258D01*
X218314258Y-36149258D02*
X217914258Y-36149258D01*
X219604258Y-41359258D02*
X219604258Y-36149258D01*
X223434258Y-36149258D02*
X218314258Y-36149258D01*
X219604258Y-41359258D02*
X219604258Y-41359258D01*
X217914258Y-36149258D02*
X217914258Y-35029258D01*
X222144258Y-41359258D02*
X222144258Y-36149258D01*
X222144258Y-36149258D02*
X222144258Y-41359258D01*
X219604258Y-36149258D02*
X219604258Y-41359258D01*
X222144258Y-41359258D02*
X222144258Y-41359258D01*
X218314258Y-35029258D02*
X218314258Y-36149258D01*
X222144258Y-36149258D02*
X222144258Y-36149258D01*
X223434258Y-29989258D02*
G75*
G03*
X218314258Y-29989258I-2560000J0D01*
G01*
%TO.C,R4*%
X109760000Y-60555000D02*
X109760000Y-60225000D01*
X109760000Y-60225000D02*
X116300000Y-60225000D01*
X116300000Y-60225000D02*
X116300000Y-60555000D01*
X109760000Y-62635000D02*
X109760000Y-62965000D01*
X109760000Y-62965000D02*
X116300000Y-62965000D01*
X116300000Y-62965000D02*
X116300000Y-62635000D01*
%TO.C,R9*%
X129640000Y-50070000D02*
X129640000Y-56610000D01*
X129310000Y-50070000D02*
X129640000Y-50070000D01*
X127230000Y-50070000D02*
X126900000Y-50070000D01*
X129640000Y-56610000D02*
X129310000Y-56610000D01*
X126900000Y-56610000D02*
X127230000Y-56610000D01*
X126900000Y-50070000D02*
X126900000Y-56610000D01*
%TO.C,D9*%
X125209258Y-36189258D02*
X125209258Y-35069258D01*
X129439258Y-36189258D02*
X129439258Y-36189258D01*
X125609258Y-35069258D02*
X125609258Y-36189258D01*
X126899258Y-41399258D02*
X126899258Y-41399258D01*
X125209258Y-35069258D02*
X125609258Y-35069258D01*
X126899258Y-36189258D02*
X126899258Y-41399258D01*
X125609258Y-36189258D02*
X125609258Y-30029258D01*
X130729258Y-36189258D02*
X130729258Y-30029258D01*
X129439258Y-41399258D02*
X129439258Y-41399258D01*
X126899258Y-41399258D02*
X126899258Y-36189258D01*
X126899258Y-36189258D02*
X126899258Y-36189258D01*
X125609258Y-36189258D02*
X125209258Y-36189258D01*
X130729258Y-36189258D02*
X125609258Y-36189258D01*
X129439258Y-36189258D02*
X129439258Y-41399258D01*
X129439258Y-41399258D02*
X129439258Y-36189258D01*
X130729258Y-30029258D02*
G75*
G03*
X125609258Y-30029258I-2560000J0D01*
G01*
%TO.C,R3*%
X109760000Y-81510000D02*
X109760000Y-81180000D01*
X109760000Y-81180000D02*
X116300000Y-81180000D01*
X109760000Y-83590000D02*
X109760000Y-83920000D01*
X109760000Y-83920000D02*
X116300000Y-83920000D01*
X116300000Y-81180000D02*
X116300000Y-81510000D01*
X116300000Y-83920000D02*
X116300000Y-83590000D01*
%TO.C,R7*%
X146780000Y-103910000D02*
X146780000Y-104240000D01*
X146780000Y-101500000D02*
X140240000Y-101500000D01*
X146780000Y-104240000D02*
X140240000Y-104240000D01*
X146780000Y-101830000D02*
X146780000Y-101500000D01*
X140240000Y-104240000D02*
X140240000Y-103910000D01*
X140240000Y-101500000D02*
X140240000Y-101830000D01*
%TO.C,R6*%
X146780000Y-81404258D02*
X146780000Y-81074258D01*
X140240000Y-81074258D02*
X140240000Y-81404258D01*
X146780000Y-83814258D02*
X140240000Y-83814258D01*
X146780000Y-81074258D02*
X140240000Y-81074258D01*
X146780000Y-83484258D02*
X146780000Y-83814258D01*
X140240000Y-83814258D02*
X140240000Y-83484258D01*
%TO.C,D7*%
X197994258Y-35029258D02*
X197994258Y-36149258D01*
X197994258Y-36149258D02*
X197994258Y-29989258D01*
X203114258Y-36149258D02*
X203114258Y-29989258D01*
X201824258Y-41359258D02*
X201824258Y-36149258D01*
X199284258Y-36149258D02*
X199284258Y-36149258D01*
X199284258Y-41359258D02*
X199284258Y-36149258D01*
X197994258Y-36149258D02*
X197594258Y-36149258D01*
X201824258Y-36149258D02*
X201824258Y-36149258D01*
X203114258Y-36149258D02*
X197994258Y-36149258D01*
X197594258Y-35029258D02*
X197994258Y-35029258D01*
X201824258Y-36149258D02*
X201824258Y-41359258D01*
X197594258Y-36149258D02*
X197594258Y-35029258D01*
X199284258Y-41359258D02*
X199284258Y-41359258D01*
X199284258Y-36149258D02*
X199284258Y-41359258D01*
X201824258Y-41359258D02*
X201824258Y-41359258D01*
X203114258Y-29989258D02*
G75*
G03*
X197994258Y-29989258I-2560000J0D01*
G01*
%TO.C,D4*%
X93854258Y-36149258D02*
X93854258Y-29989258D01*
X93854258Y-36149258D02*
X93454258Y-36149258D01*
X97684258Y-41359258D02*
X97684258Y-36149258D01*
X98974258Y-36149258D02*
X93854258Y-36149258D01*
X93454258Y-35029258D02*
X93854258Y-35029258D01*
X95144258Y-36149258D02*
X95144258Y-36149258D01*
X97684258Y-36149258D02*
X97684258Y-36149258D01*
X97684258Y-36149258D02*
X97684258Y-41359258D01*
X93454258Y-36149258D02*
X93454258Y-35029258D01*
X95144258Y-41359258D02*
X95144258Y-36149258D01*
X95144258Y-41359258D02*
X95144258Y-41359258D01*
X98974258Y-36149258D02*
X98974258Y-29989258D01*
X95144258Y-36149258D02*
X95144258Y-41359258D01*
X93854258Y-35029258D02*
X93854258Y-36149258D01*
X97684258Y-41359258D02*
X97684258Y-41359258D01*
X98974258Y-29989258D02*
G75*
G03*
X93854258Y-29989258I-2560000J0D01*
G01*
%TO.C,R5*%
X146780000Y-62965000D02*
X140240000Y-62965000D01*
X146780000Y-60555000D02*
X146780000Y-60225000D01*
X140240000Y-60225000D02*
X140240000Y-60555000D01*
X146780000Y-62635000D02*
X146780000Y-62965000D01*
X140240000Y-62965000D02*
X140240000Y-62635000D01*
X146780000Y-60225000D02*
X140240000Y-60225000D01*
%TO.C,D3*%
X73534258Y-35029258D02*
X73534258Y-36149258D01*
X74824258Y-36149258D02*
X74824258Y-41359258D01*
X78654258Y-36149258D02*
X73534258Y-36149258D01*
X74824258Y-41359258D02*
X74824258Y-41359258D01*
X78654258Y-36149258D02*
X78654258Y-29989258D01*
X73134258Y-35029258D02*
X73534258Y-35029258D01*
X77364258Y-36149258D02*
X77364258Y-41359258D01*
X73534258Y-36149258D02*
X73534258Y-29989258D01*
X77364258Y-36149258D02*
X77364258Y-36149258D01*
X73534258Y-36149258D02*
X73134258Y-36149258D01*
X77364258Y-41359258D02*
X77364258Y-36149258D01*
X77364258Y-41359258D02*
X77364258Y-41359258D01*
X74824258Y-36149258D02*
X74824258Y-36149258D01*
X73134258Y-36149258D02*
X73134258Y-35029258D01*
X74824258Y-41359258D02*
X74824258Y-36149258D01*
X78654258Y-29989258D02*
G75*
G03*
X73534258Y-29989258I-2560000J0D01*
G01*
%TO.C,R8*%
X140240000Y-121714258D02*
X140240000Y-122044258D01*
X146780000Y-124454258D02*
X140240000Y-124454258D01*
X146780000Y-122044258D02*
X146780000Y-121714258D01*
X146780000Y-124124258D02*
X146780000Y-124454258D01*
X140240000Y-124454258D02*
X140240000Y-124124258D01*
X146780000Y-121714258D02*
X140240000Y-121714258D01*
%TO.C,R1*%
X109760000Y-124560000D02*
X116300000Y-124560000D01*
X109760000Y-121820000D02*
X116300000Y-121820000D01*
X109760000Y-122150000D02*
X109760000Y-121820000D01*
X116300000Y-121820000D02*
X116300000Y-122150000D01*
X116300000Y-124560000D02*
X116300000Y-124230000D01*
X109760000Y-124230000D02*
X109760000Y-124560000D01*
%TO.C,D5*%
X161184258Y-41359258D02*
X161184258Y-36149258D01*
X157354258Y-36149258D02*
X156954258Y-36149258D01*
X158644258Y-36149258D02*
X158644258Y-36149258D01*
X156954258Y-35029258D02*
X157354258Y-35029258D01*
X157354258Y-35029258D02*
X157354258Y-36149258D01*
X162474258Y-36149258D02*
X157354258Y-36149258D01*
X158644258Y-36149258D02*
X158644258Y-41359258D01*
X158644258Y-41359258D02*
X158644258Y-41359258D01*
X162474258Y-36149258D02*
X162474258Y-29989258D01*
X158644258Y-41359258D02*
X158644258Y-36149258D01*
X157354258Y-36149258D02*
X157354258Y-29989258D01*
X161184258Y-36149258D02*
X161184258Y-41359258D01*
X156954258Y-36149258D02*
X156954258Y-35029258D01*
X161184258Y-41359258D02*
X161184258Y-41359258D01*
X161184258Y-36149258D02*
X161184258Y-36149258D01*
X162474258Y-29989258D02*
G75*
G03*
X157354258Y-29989258I-2560000J0D01*
G01*
%TO.C,D6*%
X181504258Y-36149258D02*
X181504258Y-36149258D01*
X177674258Y-35029258D02*
X177674258Y-36149258D01*
X178964258Y-36149258D02*
X178964258Y-41359258D01*
X178964258Y-41359258D02*
X178964258Y-41359258D01*
X181504258Y-41359258D02*
X181504258Y-36149258D01*
X178964258Y-36149258D02*
X178964258Y-36149258D01*
X177674258Y-36149258D02*
X177674258Y-29989258D01*
X177274258Y-35029258D02*
X177674258Y-35029258D01*
X177274258Y-36149258D02*
X177274258Y-35029258D01*
X177674258Y-36149258D02*
X177274258Y-36149258D01*
X181504258Y-36149258D02*
X181504258Y-41359258D01*
X182794258Y-36149258D02*
X182794258Y-29989258D01*
X182794258Y-36149258D02*
X177674258Y-36149258D01*
X178964258Y-41359258D02*
X178964258Y-36149258D01*
X181504258Y-41359258D02*
X181504258Y-41359258D01*
X182794258Y-29989258D02*
G75*
G03*
X177674258Y-29989258I-2560000J0D01*
G01*
D12*
%TO.C,U1*%
X137160000Y-135890000D02*
X119380000Y-135890000D01*
X119380000Y-135890000D02*
X119380000Y-156718000D01*
X119380000Y-156718000D02*
X137160000Y-156718000D01*
X137160000Y-156718000D02*
X137160000Y-135890000D01*
D13*
%TO.C,SW1*%
X126238000Y-98552000D02*
X126492000Y-98298000D01*
X130302000Y-92456000D02*
X130302000Y-98044000D01*
X129794000Y-103632000D02*
X126746000Y-103632000D01*
X130302000Y-98552000D02*
X130302000Y-104140000D01*
X130302000Y-98044000D02*
X130048000Y-98298000D01*
X126238000Y-92456000D02*
X126746000Y-92456000D01*
X126746000Y-92456000D02*
X126746000Y-92964000D01*
X129794000Y-104140000D02*
X129794000Y-103632000D01*
X129794000Y-92964000D02*
X129794000Y-92456000D01*
X126238000Y-98044000D02*
X126238000Y-92456000D01*
X126492000Y-98298000D02*
X126238000Y-98044000D01*
X126746000Y-104140000D02*
X126238000Y-104140000D01*
X126746000Y-92964000D02*
X129794000Y-92964000D01*
X130048000Y-98298000D02*
X130302000Y-98552000D01*
X126746000Y-103632000D02*
X126746000Y-104140000D01*
X130302000Y-104140000D02*
X129794000Y-104140000D01*
X129794000Y-92456000D02*
X130302000Y-92456000D01*
X126238000Y-104140000D02*
X126238000Y-98552000D01*
D11*
%TO.C,R2*%
X116300000Y-101394258D02*
X116300000Y-101724258D01*
X109760000Y-101394258D02*
X116300000Y-101394258D01*
X109760000Y-101724258D02*
X109760000Y-101394258D01*
X116300000Y-104134258D02*
X116300000Y-103804258D01*
X109760000Y-104134258D02*
X116300000Y-104134258D01*
X109760000Y-103804258D02*
X109760000Y-104134258D01*
%TO.C,D2*%
X57049258Y-36189258D02*
X57049258Y-36189258D01*
X58339258Y-36189258D02*
X58339258Y-30029258D01*
X53219258Y-36189258D02*
X52819258Y-36189258D01*
X54509258Y-36189258D02*
X54509258Y-41399258D01*
X54509258Y-36189258D02*
X54509258Y-36189258D01*
X53219258Y-36189258D02*
X53219258Y-30029258D01*
X52819258Y-35069258D02*
X53219258Y-35069258D01*
X54509258Y-41399258D02*
X54509258Y-41399258D01*
X58339258Y-36189258D02*
X53219258Y-36189258D01*
X52819258Y-36189258D02*
X52819258Y-35069258D01*
X57049258Y-36189258D02*
X57049258Y-41399258D01*
X57049258Y-41399258D02*
X57049258Y-36189258D01*
X57049258Y-41399258D02*
X57049258Y-41399258D01*
X53219258Y-35069258D02*
X53219258Y-36189258D01*
X54509258Y-41399258D02*
X54509258Y-36189258D01*
X58339258Y-30029258D02*
G75*
G03*
X53219258Y-30029258I-2560000J0D01*
G01*
%TO.C,LS1*%
X134366000Y-116840000D02*
G75*
G03*
X134366000Y-116840000I-6096000J0D01*
G01*
%TO.C,D1*%
X34184258Y-41399258D02*
X34184258Y-41399258D01*
X32894258Y-36189258D02*
X32894258Y-30029258D01*
X38014258Y-36189258D02*
X32894258Y-36189258D01*
X36724258Y-41399258D02*
X36724258Y-36189258D01*
X34184258Y-41399258D02*
X34184258Y-36189258D01*
X36724258Y-36189258D02*
X36724258Y-41399258D01*
X32894258Y-35069258D02*
X32894258Y-36189258D01*
X32894258Y-36189258D02*
X32494258Y-36189258D01*
X36724258Y-36189258D02*
X36724258Y-36189258D01*
X32494258Y-36189258D02*
X32494258Y-35069258D01*
X32494258Y-35069258D02*
X32894258Y-35069258D01*
X34184258Y-36189258D02*
X34184258Y-36189258D01*
X38014258Y-36189258D02*
X38014258Y-30029258D01*
X36724258Y-41399258D02*
X36724258Y-41399258D01*
X34184258Y-36189258D02*
X34184258Y-41399258D01*
X38014258Y-30029258D02*
G75*
G03*
X32894258Y-30029258I-2560000J0D01*
G01*
%TD*%
M02*
